<svg xmlns="http://www.w3.org/2000/svg" width="512" height="341" viewBox="0 0 512 341"><path fill="#313c43" d="M178 152q2 5 7 6 11-2 20-6c11-2 11-9 13-18l5-18c3-16 1-16 17-16h30c5 0 14-2 17 3l2 9 4 18 4 15q4 7 12 8l17 5 4-1q3-2 4-6l8 2 16 3q-1 13-10 21l-9 3h-14l-25-2h-17v2q3 10-6 10l-44-1c-6 0-5-8-4-11l-38 1-18 1-9-3q-10-9-10-21zm99 1 2-2v-33l-1-2h-43l-2 1v34q3 3 6 2z"/><path fill="#21292e" d="M229 178h54v4h-54zm5-64h26l19 1 2 2v27c0 3 1 10-3 10h-45l-2-2v-36zm43 39 2-2v-33l-1-2h-43l-2 1v34q3 3 6 2z"/><path fill="#313c43" d="M235 116h43l1 2-2 35h-38l-6-2-1-2zm16 9h11v-3h-11zm-13 0h11v-3h-11z"/><path fill="#f93131" d="M264 143h11v3h-11zm0-10h11v3h-11z"/><path fill="#a9e756" d="M238 143h11v3h-11z"/><path fill="#4bf45f" d="M238 133h11v3h-11z"/><path fill="#fdbd67" d="M251 138h11v3h-11z"/><path fill="#4bf45f" d="M238 127h11v3h-11z"/><path fill="#fdbd67" d="M251 143h11v3h-11z"/><path fill="#4bf45f" d="M238 138h9q3 0 2 3h-11zm13-16h11v3h-11z"/><path fill="#fdbd67" d="M251 133h11v3h-11z"/><path fill="#f93131" d="M264 138h11v3h-11z"/><path fill="#4bf45f" d="M238 122h11v3h-11z"/><path fill="#49525a" d="M280 104a2 2 0 1 1 1 5 2 2 0 0 1-1-5m-49 0a2 2 0 1 1-1 4 2 2 0 0 1 1-4m49 65a2 2 0 1 1 1 4 2 2 0 0 1-1-4m-49 0a2 2 0 0 1 3 2 2 2 0 0 1-5 0z"/><path fill="#313c43" d="M253 192h24v89c0 18 1 17-16 17h-21q-5-2-5-6v-99l2-1z"/><path fill="#49525a" d="M237 192h16l-9 1 1 73v32h-5q-5-2-5-6v-99z"/><path fill="#313c43" d="M240 298q-5-2-5-6v-99l2-1 2 1 1 11zm-86-144c-6-3-4-18-4-23q4-40 20-76c6-13 6-14 18-6l10 7q3 7 0 14v1c2 3 7 10 3 13l-10 2c-2 3-7 3-6 8 0 4 4 7 1 10q-4 3-4 8c1 4 5 8 2 12-2 2-7 5-6 9 2 7 9 9 0 16l-13 2z"/><path fill="#21292e" d="M198 56q3 7 0 14v1c2 3 7 10 3 13q-5 3-10 2c-2 3-7 3-6 8 0 4 4 7 1 10q-4 3-4 8c1 4 5 8 2 12-2 2-7 5-6 9 2 7 9 9 0 16l-13 2c0-14 6-34 9-48l1-13 9-13 9-15z"/><path fill="#313c43" d="M198 71c2 3 7 10 3 13q-5 3-10 2z"/><path fill="#886949" d="m174 68 5 2a6 6 0 0 1-4 9 6 6 0 0 1-1-11"/><path fill="#fdbd67" d="M174 70a3 3 0 0 1 4 4 3 3 0 0 1-6 0 3 3 0 0 1 2-4m6-16 4 1a4 4 0 0 1-2 6 4 4 0 0 1-2-7"/><path fill="#313c43" d="M315 56q3-5 10-8c2-1 9-7 11-4q5 6 6 11 18 40 20 82c0 4 1 15-4 16l-12-2-12-2c-9-6-2-10 0-16 1-4-4-7-6-9-3-4 1-8 2-12q0-5-4-8c-3-3 1-7 1-10 1-5-4-5-6-8q-5 0-9-2c-5-3 0-10 2-13q-3-8 1-15"/><path fill="#21292e" d="m315 56 4 6 5 9 13 18 1 15c2 12 10 36 8 47l-12-2c-9-6-2-10 0-16 1-4-4-7-6-9-3-4 1-8 2-12q0-5-4-8c-3-3 1-7 1-10 1-5-4-5-6-8q-5 1-9-2c-5-3 0-10 2-13q-3-8 1-15"/><path fill="#313c43" d="m314 71 6 12 1 3q-5 1-9-2c-5-3 0-10 2-13"/><path fill="#886949" d="M336 68a6 6 0 0 1 2 11 6 6 0 1 1-2-11"/><path fill="#fdbd67" d="M336 70a3 3 0 1 1 2 7 3 3 0 1 1-2-7m-6-16a4 4 0 0 1 4 4 4 4 0 0 1-7 1 4 4 0 0 1 3-5"/><path fill="#07f8f3" d="M178 149v3l-24 4v-2l11-3zm156 0 12 2 12 2v3l-16-3-8-2z"/></svg>