<svg xmlns="http://www.w3.org/2000/svg" width="512" height="341" viewBox="0 0 512 341"><path fill="#484848" d="m80 111 8-16c6-9 22-31 33-34 5-1 23 1 28 2l31 3 30 2a843 843 0 0 0 121-2l36-4 19-1 9 3q21 16 32 41l3 5 1 1q6 9 7 19l4 15a198 198 0 0 1 2 73q-3 23-11 45c-2 4 1 11-2 15-5 5-21-1-26-5l-1-3-2-10 5-15q4-18 3-36 0-5-3-8c-7-7-14-3-22-3h-1l-2-2-8 3q-8 6-6 16l2 11c-2 15-17 17-28 20l-9 2-20 1v3l-2 5c-5 4-16 6-22 4l-4-2q-3-3-8-3a295 295 0 0 0-49 1l-4 2q-3 4-9 3c-4 0-13-2-16-5q-3-3-2-8-13 0-25-2l-4-1-2-1q-12-1-21-9-4-4-4-10c0-10 5-21-5-27l-8-3-2 2c-9 0-16-4-23 3q-3 4-3 8-1 18 3 35 3 7 4 16c1 2 0 11-2 13-4 3-15 7-20 7l-6-1c-3-5 0-11-2-16l-4-13-6-25a202 202 0 0 1 0-78l5-17q1-10 6-18zm288 18c4 0 16 1 20 3l4 2c3 4 2 19 3 25q11-10 5-23l-4-4v-6q-3-8-12-12-10-1-17 6zm-251 30c0-5 0-21 3-25l4-2c4-2 14-3 19-3l1-1 1-8q-7-7-17-6a15 15 0 0 0-9 7l-3 5v5l-4 5c-5 7-1 18 5 23"/><path fill="#484848" d="m79 112 1-1c3 2 0 13 12 19l8 2c7-1 12-7 16-6v5l-4 5c-5 7-1 18 5 23 5 4 12 2 15 6 1 5-2 18-2 24l-1 7-2 2c-9 0-16-4-23 3q-3 4-3 8-1 18 3 35 3 7 4 16c1 2 0 11-2 13-4 3-15 7-20 7l-6-1c-3-5 0-11-2-16l-4-13-6-25a202 202 0 0 1 0-78l5-17q2-10 6-18"/><path fill="#2a2a2a" d="m79 112 1-1c3 2 0 13 12 19l8 2c7-1 12-7 16-6v5l-4 5c-5 7-1 18 5 23 5 4 12 2 15 6 1 5-2 18-2 24l-1 7-2 2c-9 0-16-4-23 3q-3 4-3 8-1 18 3 35 3 7 4 16c1 2 0 11-2 13-4 3-15 7-20 7l-6-1 10-2q7-1 13-5c-5-8-5-12-7-21q-6-27-7-54-1-28 9-53 2-6 7-11c-13 2-24-4-25-18z"/><path fill="#484848" d="M117 159c5 4 12 2 15 6 1 5-2 18-2 24l-1 7-2 2v-7c0-4 3-23 2-26-1-2-7-2-9-3zm315-48q6 9 7 19l4 15a198 198 0 0 1 2 73q-3 23-11 45c-2 4 1 11-2 15-5 5-21-1-26-5l-1-3-2-10 5-15q4-18 3-36 0-5-3-8c-7-7-14-3-22-3h-1l-2-2v-5c-1-6-4-20-2-26 2-4 9-2 14-6q11-10 5-23l-4-4q-2-4 0-5l1-1c2-1 7 3 9 4l4 2 9-2c13-5 9-17 13-19"/><path fill="#2a2a2a" d="M432 111q1 7-2 12-7 12-20 10h-3c15 15 16 49 15 69q0 25-6 49c-2 9-2 13-7 21q8 5 17 6h6c-5 5-21-1-26-5l-1-3-2-10 5-15q4-18 3-36 0-5-3-8c-7-7-14-3-22-3h-1l-2-2v-5c-1-6-4-20-2-26 2-4 9-2 14-6q11-10 5-23l-4-4q-2-4 0-5l1-1c2-1 7 3 9 4l4 2 9-2c13-5 9-17 13-19"/><path fill="#484848" d="M381 165c2-4 9-2 14-6-3 4-12 3-12 8l2 19v12l-2-2v-5c-1-6-4-20-2-26"/><path fill="#2a2a2a" d="M371 226c-2 0-6 6-7 8q-9 7-17 0-3-5-4-11l-7-48q-1-8 3-15 8-6 15 0 3 3 8 3l7-1 2 2 10 1c-2 6 1 20 2 26v5l-8 3q-8 6-6 16z"/><path fill="#a09e9f" d="M345 161a8 8 0 1 1 3 15 8 8 0 1 1-3-15"/><path fill="#2a2a2a" d="M343 166q6 1 2 6-5-1-2-6"/><path fill="#a09e9f" d="M343 167q4 0 2 4h-1z"/><path fill="#2a2a2a" d="m349 165 1 1-1 1v4q0-3-2-5z"/><path fill="#a09e9f" d="M350 190q6 0 8 7a8 8 0 0 1-8 8 8 8 0 0 1-8-7 8 8 0 0 1 8-8"/><path fill="#2a2a2a" d="M350 199v-4c2 1 0 4 2 4v-4h1v1l2-2v1l-1 2 1 2v1l-2-2v1c-2 2-3-1-5 0v1h-2c-1-3 1-4-2-5h5z"/><path fill="#2a2a2a" d="M346 200c-1-3 1-4-2-5h4l-1 5z"/><path fill="#a09e9f" d="m348 195-1 5h-1q0-3 2-5"/><path fill="#2a2a2a" d="M142 162h13q6-6 14-5 4 1 6 6l1 4-1 14-5 35q0 8-3 15c-2 5-10 8-15 5q-6-4-10-10c0-10 5-21-5-27l-8-3 1-7c0-6 3-19 2-24q5 0 10-3"/><path fill="#a09e9f" d="M161 190a8 8 0 0 1 8 7 8 8 0 0 1-6 8 8 8 0 0 1-9-7 8 8 0 0 1 7-8"/><path fill="#2a2a2a" d="M159 194q6 2 1 6-6-2-1-6"/><path fill="#a09e9f" d="M159 195q4 1 1 4l-1-1z"/><path fill="#2a2a2a" d="M163 195v2l3-2-2 2 1 3v1l-2-3-1 2h-1z"/><path fill="#d3d4d9" d="m160 166 2 2v-2h1v4l-1-1-1 1v-1l-1 1zm7 0h2q2 2 0 4l-1-1-1 1z"/><path fill="#d3d4d9" d="M171 166v1l2-1v1l-1 1 1 2q-1 1-2-1l-1 2q-1-2 1-5m-6 0q2 2 1 3h-3z"/><path fill="#1f1f1f" d="m198 249 26-2 35-1 30 1 25 2v3l-2 5c-5 4-16 6-22 4l-4-2q-3-3-8-3a295 295 0 0 0-49 1l-4 2q-3 4-9 3c-4 0-13-2-16-5q-2-3-2-8m170-120c4 0 16 1 20 3l4 2c3 4 2 19 3 25-5 4-12 2-14 6l-10-1-2-2zm-251 30c0-5 0-21 3-25l4-2c4-2 14-3 19-3h1l-2 33q-5 3-10 3c-3-4-10-2-15-6"/><path fill="#2a2a2a" d="M243 82h2q35-1 70 1l14 2q3 3 4 8l6 5 1 8v23c-1 3-8 4-9 9v31c0 3 1 15-2 17l-13 1-7 2H203l-7-2c-3-1-12 0-14-2-2-1-1-10-1-12v-22q2-10-4-18-4-1-5-6v-25c0-6 4-5 7-9 2-2 1-8 5-8q29-4 59-3"/><path fill="#1f1f1f" d="M195 96h126q6 1 5 7v69q-1 6-7 5H191l-4-2-1-6v-68q1-6 9-5"/><path fill="#484848" d="M190 99h132l1 1v69q0 3-2 5H192l-3-1v-71z"/><path fill="#f1d64a" d="M253 84h6v4h-6z"/><path fill="#e43434" d="M279 84h6v4h-6z"/><path fill="#f8a437" d="M270 84h6v4h-5z"/><path fill="#f1d64a" d="M244 84h6v4h-6zm18 0h6v4h-6z"/><path fill="#e43434" d="M288 84h6v5h-6z"/><path fill="#51ba7d" d="M218 84h6v5h-6zm-18 1h6v5h-6z"/><path fill="#e43434" d="M297 85h6v4h-6z"/><path fill="#bdce53" d="M235 84h6v4h-6z"/><path fill="#51ba7d" d="M226 84h6v4h-6zm-17 1h6v4h-6z"/><path fill="#e43434" d="M306 85h6v5h-6z"/><path fill="#2a2a2a" d="M147 67c8-1 8 4 10 9q3 7 10 8 5-1 8 3c2 6-7 5-9 10v7c2 5 0 12-6 13q-7 2-13-3l-8-5q-15-6-32-10c-5-1-8-9-5-14 6-12 23-3 33-6 7-3 6-10 12-12"/><path fill="#51ba7d" d="M111 82a8 8 0 0 1 8 6 8 8 0 0 1-6 9 8 8 0 0 1-9-7 8 8 0 0 1 7-8"/><path fill="#2a2a2a" d="M109 85h2l2 5 1-5h1v8h-2l-2-5-1 5h-1z"/><path fill="#a09e9f" d="M155 99a8 8 0 1 1 3 15 8 8 0 0 1-9-6 8 8 0 0 1 6-9"/><path fill="#2a2a2a" d="M153 103h2q2 2 0 6l-4-1zm6 3-2 3v-5l1 4 1-4 1 1v3h1l-1 2h-1zm1 2 2-3z"/><path fill="#476baa" d="M134 87a8 8 0 0 1 9 6 8 8 0 0 1-6 9 8 8 0 0 1-3-15"/><path fill="#d3d4d9" d="m137 93 1-2c3 0 3 5 1 6q-2 1-3-1z"/><path fill="#476baa" d="M138 92q3 2 1 4h-1z"/><path fill="#d3d4d9" d="m136 96-1 1-1-4v-1l2-1 1 2z"/><path fill="#5185c1" d="m136 91 1 2-1 3z"/><path fill="#2a2a2a" d="M362 67c9 0 7 9 14 11 9 3 19-1 28 1q8 5 6 15c-2 7-12 6-18 8l-16 6-18 10c-6 2-14-4-13-10l1-10q-2-5-8-7c-5-8 7-6 12-9 8-4 3-13 12-15"/><path fill="#a09e9f" d="m399 82 7 3a8 8 0 0 1 1 8l-6 4a8 8 0 0 1-9-7 8 8 0 0 1 7-8"/><path fill="#2a2a2a" d="M396 85q4-1 5 3-1 2-3 2l-1 2zm5 0 1 1v5l3 1h-4z"/><path fill="#a09e9f" d="M354 99a8 8 0 1 1 3 15 8 8 0 0 1-3-15"/><path fill="#2a2a2a" d="M351 104q3-1 4 1 0 2-3 3v2zm7-1q2 0 2 2zq-3 3 0 4l2-2v1h1c-2 5-9-1-3-4"/><path fill="#476baa" d="M375 87q8-1 9 6a8 8 0 0 1-6 9 8 8 0 0 1-9-6 8 8 0 0 1 6-9"/><path fill="#d3d4d9" d="M380 90v7l-1 1v-5l-2-1zm-6 2h1v1l2 1-2 1v2l-1-1q0-2-2-2z"/><path fill="#1f1f1f" d="M189 234a18 18 0 0 1-2-19 18 18 0 0 1 20-10 18 18 0 0 1 14 16 18 18 0 0 1-11 18 18 18 0 0 1-21-5"/><path fill="#bdce53" d="M203 205a18 18 0 0 1 18 16 18 18 0 0 1-11 18 18 18 0 0 1-21-5l4-3 6 4q6 1 10-1a13 13 0 0 0 6-8q2-6-1-10-3-5-9-6h-2z"/><path fill="#f1d64a" d="M203 205h4q0 3-2 5h-2z"/><path fill="#3fb0ac" d="M189 234a18 18 0 0 1-2-19 18 18 0 0 1 16-10v5h-1q-5 0-8 3a13 13 0 0 0-4 10q0 4 3 8z"/><path fill="#a09e9f" d="M202 210h1l1 11h-2z"/><path fill="#1f1f1f" d="M308 205a18 18 0 1 1-16 24 18 18 0 0 1 2-16 18 18 0 0 1 14-8"/><path fill="#5185c1" d="M308 205a18 18 0 1 1-16 24l5-1 5 6a13 13 0 0 0 10 1 13 13 0 0 0 8-6 12 12 0 0 0 1-10l-5-7h-1q-3-2-7-2z"/><path fill="#c1af79" d="M292 229a18 18 0 0 1 2-16 18 18 0 0 1 14-8v5q-14 2-11 18z"/><path fill="#a09e9f" d="m315 212-6 10-2-2zm38-77q0-4 4-3h7v3l1 4v13l-10 1-1-2z"/><path fill="#585858" d="M365 139v13l-10 1 2-1h1v-3h7v-9z"/><path fill="#1f1f1f" d="M365 139v13l-10 1 2-1h7l1-3v-9z"/><path fill="#585858" d="M365 143h-7v-2l7-1v7zm-8-11h7v3l-7-1z"/><path fill="#727172" d="M353 135q0-4 4-3v2z"/><path fill="#a09e9f" d="m148 134 1-2 4-1q7-1 6 4l-1 17h-9l2 1c-7 3-4-14-4-14z"/><path fill="#585858" d="m148 134 1-2 4-1q7-1 6 4zm1 18 2 1c-7 3-4-14-4-14v10h7v3z"/><path fill="#2a2a2a" d="m149 152 2 1c-7 3-4-14-4-14v7q-1 5 2 6"/><path fill="#585858" d="M147 140h8v3h-8z"/><path fill="#1f1f1f" d="M111 207v-3c2-2 22-5 26-5 10 6 5 17 5 27q0 6 4 10 9 7 21 9l2 1-5 4c-1 3-16 9-18 8l-1-3-15 3-11 1q-5-2-7-6l-8-37q-1-7 7-9m264-8c4 0 24 3 26 5v3q7 1 7 9l-3 13-3 16q0 7-5 12-7 3-15 1l-15-3-1 3c-2 1-16-5-17-7l-6-5c11-3 26-5 28-20l-2-11q-2-10 6-16"/></svg>