<svg xmlns="http://www.w3.org/2000/svg" width="687" height="813" fill="none" viewBox="0 0 687 813"><g filter="url(#a)"><rect width="297" height="127" x="4.5" y=".5" fill="#ed6d20" fill-opacity=".1" stroke="#ed6d20" rx="33.5"/><path fill="#f0997b" d="M86.7 58.2q-1.2 0-2-.4t-1.3-1a3 3 0 0 1-.6-1.5h1.8q0 .6.6 1l1.5.3h.8q1 0 1.6-.5.5-.4.5-1.1t-.5-1.1-1.4-.6l-1.4-.2q-1.7-.3-2.5-1-.7-.7-.7-2.2t.9-2.2 2.8-.9h.8q1.6 0 2.5.8a3 3 0 0 1 1.2 2h-1.8q-.1-.5-.6-.8t-1.3-.4h-.8q-1 0-1.5.4T85 50q-.1.6.4 1 .3.3 1.2.4l1.5.3q1.8.2 2.6 1 .8.7.8 2.2a3 3 0 0 1-1 2.4q-1 .9-2.9.9zm12.3 0q-1.3 0-2.3-.5t-1.5-1.5-.5-2.2v-3q0-1.2.5-2.2.6-.9 1.5-1.5t2.3-.5 2.3.5q.9.6 1.5 1.5t.5 2.2v3q0 1.3-.5 2.2t-1.5 1.5-2.3.5m0-1.6q1.2 0 1.8-.7t.7-2V51q0-1.2-.7-1.9t-1.8-.7-1.8.7-.7 2V54q0 1.2.7 1.9t1.8.7m12 1.6q-2 0-3-1.1a4 4 0 0 1-1.2-3.1v-7h1.8v7q0 1.2.6 2 .7.6 1.8.6 1 0 1.7-.7t.7-1.9v-7h1.8v7q0 2-1.2 3-1.1 1.2-3 1.2m8.2-.2V47h1.8v2.1h.4l-.6 1.3q0-1.7.8-2.7.7-.9 2.3-.9 1.7 0 2.7 1.1a4 4 0 0 1 1 3v.6H126V51q0-1.3-.7-2t-1.8-.7-1.8.7q-.6.7-.6 2v7zm15.8.2q-1.2 0-2.3-.5-.9-.5-1.5-1.4-.6-1-.5-2.3v-3q0-1.3.5-2.3t1.5-1.4 2.3-.5q2 0 3.1 1t1.2 2.8h-1.8q0-1-.7-1.6t-1.8-.6-1.8.7q-.7.6-.7 1.9v3q0 1.2.7 2 .6.6 1.8.6t1.8-.6.7-1.6h1.8q0 1.8-1.2 2.8t-3 1m12 0q-1.4 0-2.3-.5-1-.6-1.5-1.5t-.5-2.2v-3q0-1.3.5-2.2t1.5-1.5 2.3-.5 2.2.5 1.5 1.5.6 2.2v2h-6.9v1q0 1.3.7 2t1.9.7q1 0 1.6-.4.7-.3.8-1.1h1.8a3 3 0 0 1-1.3 2.2 5 5 0 0 1-3 .8m2.5-6.5V51q0-1.3-.7-2t-1.8-.7-2 .7-.6 2v.6h5.2zm6.3.5v-1.6h6.4v1.6zm11 5.8V47h1.8v2.1h.4l-.4.4q0-1.2.8-2a3 3 0 0 1 2.1-.7q1.7 0 2.7 1t1 2.8V58h-1.9v-7.2q0-1.2-.6-1.8t-1.7-.6-1.8.6q-.6.7-.6 2v7zm15.2.2a4 4 0 0 1-2.8-.9 3 3 0 0 1-1-2.4 3 3 0 0 1 1-2.4 4 4 0 0 1 2.7-.9h3.4v-1.1q0-1-.6-1.6-.6-.5-1.7-.5a3 3 0 0 0-1.6.4q-.7.4-.8 1.1h-1.8q.2-1.5 1.3-2.3t3-.8 3 1q1 1 1 2.6V58h-1.7v-2.1h-.3l.3-.3q0 1.2-1 1.9a4 4 0 0 1-2.4.7m.4-1.4q1.3 0 2.1-.7t.8-1.6v-1.6H182a2 2 0 0 0-1.4.5q-.6.5-.6 1.4t.7 1.5q.6.5 1.7.5m7.8 1.2V47h1.6v1.3h.4l-.3.5q0-.9.5-1.5t1.3-.5 1.5.7.5 1.9l-.6-1h.8l-.3.4q0-.9.5-1.5t1.3-.5q1.1 0 1.6.8t.6 2V58H198v-8.4q0-.6-.2-1t-.9-.4a1 1 0 0 0-.9.4q-.2.3-.2 1V58h-1.5v-8.4q0-.6-.3-1a1 1 0 0 0-.9-.4q-.5 0-.8.4-.3.3-.3 1V58zm16.7.2q-1.2 0-2.3-.5-.9-.6-1.5-1.5t-.5-2.2v-3q0-1.3.5-2.2t1.5-1.5 2.3-.5 2.3.5 1.5 1.5.5 2.2v2h-6.8v1q0 1.3.6 2t2 .7q1 0 1.6-.4.6-.3.8-1.1h1.8a3 3 0 0 1-1.4 2.2 5 5 0 0 1-2.9.8m2.6-6.5V51q0-1.3-.7-2t-1.9-.7-1.9.7-.6 2v.6h5.2zm-93.1 34.4q-.7 0-1.2-.2l-.8-.6q-.3-.4-.3-1h1q.1.4.4.6.4.3.9.2h.5q.6 0 1-.2.3-.3.3-.7t-.3-.7-.9-.3l-.8-.2q-1 0-1.5-.6-.5-.4-.5-1.2t.6-1.4 1.7-.5h.4q1 0 1.6.4t.7 1.2H118q0-.3-.4-.4-.3-.2-.8-.2h-.4q-.6 0-1 .2l-.2.7.3.6.7.3.9.1q1 .2 1.5.6.6.5.5 1.3t-.5 1.5q-.6.5-1.8.5zm7.4 0-1.4-.3q-.6-.3-.9-.9t-.3-1.3v-1.8q0-.8.3-1.3t1-.9l1.3-.3q.8 0 1.4.3l.9.9q.3.5.3 1.3v1.8q0 .8-.3 1.3-.4.6-1 .9zm0-1q.7 0 1.1-.4.4-.3.4-1.1v-1.8q0-.8-.4-1.1t-1.1-.4-1.1.4q-.4.3-.4 1.1v1.8q0 .8.4 1.1t1 .4m7.2 1q-1.2 0-1.8-.7t-.7-1.8v-4.2h1v4.2q0 .8.4 1.2t1 .4q.8 0 1.1-.4t.4-1.2v-4.2h1.1v4.2q0 1.2-.7 1.8t-1.8.7m5-.1v-6.6h1v1.3h.2l-.3.7q0-1 .4-1.6.5-.5 1.4-.5 1 0 1.7.6t.6 1.8v.4h-1v-.3q0-.8-.5-1.2-.3-.4-1-.4-.8 0-1.1.4t-.4 1.2V86zm9.4.1-1.4-.3q-.6-.3-.9-.8t-.3-1.4v-1.8q0-.8.3-1.4t1-.8l1.3-.3q1.2 0 1.9.6t.7 1.7h-1q-.2-.7-.5-1-.4-.3-1-.4-.8 0-1.2.4t-.4 1.2v1.8q0 .8.4 1.2t1.1.4 1-.4q.5-.3.5-1h1.1q0 1-.7 1.7t-1.9.6m7.2 0q-.8 0-1.4-.3t-.9-.9-.3-1.3v-1.8q0-.8.3-1.3t1-1l1.3-.2q.8 0 1.3.3t1 .9l.3 1.3V83H151v.6q0 .8.3 1.2.4.4 1.2.4.6 0 1-.2l.5-.7h1q0 .9-.8 1.3a3 3 0 0 1-1.7.5m1.5-3.9v-.4q0-.8-.4-1.2t-1.1-.4-1.2.4-.3 1.2v.3zm3.8.3v-1h3.8v1zm8.9 3.6q-.8 0-1.2-.2l-.8-.6-.4-1h1.1q0 .4.4.6.3.3.9.2h.5q.6 0 1-.2l.2-.7q0-.4-.3-.7t-.8-.3l-.9-.2q-1 0-1.4-.6-.5-.4-.5-1.2t.6-1.4 1.7-.5h.4q1 0 1.5.4t.7 1.2h-1q0-.3-.4-.4-.3-.2-.8-.2h-.4q-.6 0-1 .2l-.2.7.2.6.8.3.9.1q1 .2 1.5.6.5.5.5 1.3t-.6 1.5q-.6.5-1.7.5zm7.4 0q-1.2 0-1.9-.7t-.7-1.8v-4.2h1.1v4.2q0 .8.4 1.2t1 .4q.8 0 1.1-.4t.4-1.2v-4.2h1v4.2q0 1.2-.6 1.8t-1.8.7m7.5 0a2 2 0 0 1-1.3-.4q-.5-.5-.5-1.2l.3.2h-.3V86h-1v-8.8h1v3.5h.3l-.3.2q0-.7.5-1.2a2 2 0 0 1 1.3-.4 2 2 0 0 1 1.6.6q.6.7.6 1.8v2q0 1-.6 1.8a2 2 0 0 1-1.6.6m-.3-1q.7 0 1-.3.5-.5.5-1.2v-1.8q0-.8-.4-1.2t-1.1-.4-1 .4q-.5.4-.5 1.2v1.8q0 .8.4 1.2t1 .4"/></g><g filter="url(#b)"><rect width="297" height="127" x="4.5" y="204.5" fill="#3b82f6" fill-opacity=".1" stroke="#3b82f6" rx="33.5"/><path fill="#85b7eb" d="M123.1 262.2q-1.5 0-2.5-.5t-1.6-1.4-.5-2.1h1.8q0 1 .7 1.7.8.7 2.1.7 1.2 0 2-.6.6-.7.7-1.8 0-.7-.5-1.5-.4-.6-1.3-1l-2-.5q-1.5-.5-2.3-1.6-.8-1-.8-2.5 0-1.2.5-2 .5-1 1.5-1.4 1-.6 2.2-.5 2 0 3.1 1 1.2 1.2 1.2 2.9h-1.8q0-1-.7-1.7t-1.8-.6-1.8.6a2 2 0 0 0-.6 1.5q0 .9.4 1.6.6.6 1.4 1l2 .6q1.5.5 2.3 1.5.8 1.1.8 2.6 0 1.2-.6 2.1t-1.6 1.4-2.3.5m13.1-.2a3 3 0 0 1-2.2-.8q-.8-.7-.8-2.1v-6.5h-3V251h3v-3.1h1.8v3.1h4.4v1.6H135v6.5q0 1.3 1.2 1.3h3v1.6zm7 0v-11h1.8v2.1h.4l-.6 1.3q0-1.7.8-2.7.8-.9 2.3-.9 1.7 0 2.7 1.1a4 4 0 0 1 1 3v.6H150v-.5q0-1.3-.7-2t-1.7-.7-1.8.7-.7 2v7zm15.8.2q-1.3 0-2.3-.5t-1.5-1.5-.5-2.2v-3q0-1.3.5-2.2t1.5-1.5 2.3-.5 2.3.5q.9.6 1.5 1.5t.5 2.2v2h-6.8v1q0 1.3.6 2t1.9.7q1 0 1.7-.4.6-.3.8-1.1h1.8a3 3 0 0 1-1.4 2.2 5 5 0 0 1-2.9.8m2.5-6.5v-.7q0-1.3-.6-2t-1.9-.7-1.9.7-.6 2v.6h5.2zm8.5 6.5a4 4 0 0 1-2.7-.9q-1-.9-1-2.4a3 3 0 0 1 1-2.4 4 4 0 0 1 2.7-.9h3.4v-1.1q0-1-.6-1.6-.6-.5-1.7-.5a3 3 0 0 0-1.7.4q-.6.4-.7 1.1h-1.8q0-1.4 1.3-2.3 1.1-.8 2.9-.8 2 0 3 1t1 2.6v7.6h-1.7v-2.1h-.3l.3-.3q0 1.2-1 1.9a4 4 0 0 1-2.4.7m.5-1.4q1.2 0 2-.7t.9-1.6v-1.6H170a2 2 0 0 0-1.4.5q-.5.6-.5 1.4 0 .9.6 1.5t1.8.5m7.8 1.2v-11h1.6v1.3h.3l-.2.5q0-.9.4-1.5t1.4-.5 1.4.7.5 1.9l-.5-1h.8l-.4.4q0-.9.5-1.5t1.4-.5 1.6.8.6 2v8.4H186v-8.4q0-.7-.3-1t-.8-.4a1 1 0 0 0-.9.4q-.3.3-.3 1v8.4h-1.4v-8.4q0-.7-.4-1a1 1 0 0 0-.8-.4q-.6 0-.9.4l-.2 1v8.4zM93 290l2.2-8.8h1.5l2.2 8.8h-1l-.6-2.3h-2.7L94 290zm1.8-3.2H97l-.6-2.7-.5-2-.4 2zm5.8 3.2v-8.8h2.3q.8 0 1.5.4.6.3 1 .9.3.5.3 1.4v3.5q0 .8-.4 1.4-.3.6-1 .9l-1.4.3zm1.1-1h1.2q.8 0 1.2-.4.5-.4.5-1.2v-3.5q0-.9-.5-1.3t-1.2-.4h-1.2zm8.7 1.1q-.8 0-1.5-.3t-1-.8-.3-1.3h1q0 .7.5 1t1.3.4 1.2-.3.4-1-.3-1l-.8-.5-1.2-.4q-.8-.3-1.4-1t-.5-1.5l.3-1.2 1-.8q.5-.3 1.3-.3 1.2 0 1.8.7.8.6.8 1.7h-1.1q0-.7-.4-1t-1.1-.4-1.1.3-.4 1l.3.9q.3.4.8.6l1.2.3q.8.3 1.4 1t.5 1.5q0 .8-.4 1.3-.3.5-1 .8-.5.3-1.3.3m11.6 1.2 4.3-11.3h1.1l-4.2 11.3zm14.6-1.3v-8.8h2.7q.8 0 1.4.4l1 .8.2 1.4q0 .8-.4 1.5t-1.3.9l1.9 3.8h-1.3l-1.7-3.7h-1.4v3.7zm1.1-4.7h1.6q.7 0 1.1-.4t.4-1.1-.4-1.2q-.4-.3-1-.4h-1.7zm6.1 4.7v-8.8h2.3q.8 0 1.4.4.7.3 1 .9.3.5.4 1.4v3.5q0 .8-.4 1.4-.3.6-1 .9l-1.4.3zm1-1h1.3q.8 0 1.2-.4.5-.4.5-1.2v-3.5q0-.9-.5-1.3t-1.2-.4h-1.2zm8.8 1.1q-.9 0-1.5-.3t-1-.8-.3-1.3h1q0 .7.5 1t1.3.4q.7 0 1.1-.3.5-.4.5-1t-.3-1l-.8-.5-1.2-.4q-.9-.3-1.4-1t-.5-1.5l.3-1.2q.3-.5 1-.8.5-.3 1.3-.3 1.1 0 1.8.7t.7 1.7h-1q0-.7-.4-1t-1.1-.4q-.8 0-1.1.3-.4.4-.4 1t.3.9.8.6l1.2.3q.9.3 1.4 1t.4 1.5-.3 1.3-1 .8q-.5.3-1.3.3m11.6 1.2 4.3-11.3h1l-4.2 11.3zm14.6-1.3v-8.8h1v3.8h1.4l2-3.8h1l-2 4.3 2.2 4.5h-1.2l-2-4h-1.3v4zm9.1.1q-1 0-1.6-.5t-.6-1.5.6-1.4 1.6-.5h2v-.7q0-.6-.4-1-.3-.3-1-.3t-1 .3-.4.6H187q0-.8.8-1.3.7-.5 1.7-.5 1.2 0 1.8.6t.7 1.6v4.5h-1v-1.3h-.2l.1-.1q0 .6-.5 1.1-.6.4-1.5.4m.3-.8q.8 0 1.2-.4.5-.4.5-1v-1h-2q-.5 0-.8.4a1 1 0 0 0-.4.8q0 .4.4.9.4.3 1 .3m6.5.7v-5h-2v-1h2v-1q0-.9.5-1.3a2 2 0 0 1 1.4-.5h1.9v1h-2q-.3 0-.5.2l-.2.5v1.2h2.7v1h-2.7v4.9zm5.7 0v-8.8h1v5h1.4l1.9-2.8h1.2l-2.2 3.1 2.3 3.5h-1.3l-2-3h-1.2v3zm9 .1q-1 0-1.6-.5t-.6-1.5.6-1.4 1.7-.5h2v-.7q0-.6-.4-1-.3-.3-1-.3t-1 .3-.4.6h-1.1q0-.8.8-1.3.6-.5 1.7-.5t1.8.6.7 1.6v4.5h-1v-1.3h-.3l.2-.1q0 .6-.5 1.1-.6.4-1.5.4m.4-.8q.8 0 1.2-.4.5-.4.5-1v-1h-2q-.6 0-.9.4l-.3.8q0 .4.4.9.4.3 1 .3"/></g><g filter="url(#c)"><rect width="297" height="127" x="4.5" y="473.5" fill="#148e8e" fill-opacity=".1" stroke="#148e8e" rx="33.5"/><path fill="#5dcaa5" d="M129.1 531.2q-1.5 0-2.5-.5t-1.6-1.4a4 4 0 0 1-.5-2.1h1.8q0 1 .7 1.7.8.7 2.1.7 1.2 0 2-.6.6-.7.7-1.8 0-.7-.5-1.5-.5-.6-1.3-1l-2-.5q-1.5-.5-2.3-1.6-.8-1-.8-2.5 0-1.2.5-2 .4-1 1.5-1.4 1-.5 2.2-.5 2 0 3.1 1 1.2 1.2 1.2 2.9h-1.8q0-1-.7-1.7t-1.8-.6-1.8.6a2 2 0 0 0-.6 1.5q0 .9.4 1.6.5.6 1.4 1l2 .6q1.4.4 2.3 1.5t.8 2.6q0 1.2-.6 2.1-.6.8-1.6 1.4t-2.3.5m13.1-.2a3 3 0 0 1-2.2-.8q-.8-.7-.8-2.1v-6.5h-3V520h3v-3.1h1.8v3.1h4.4v1.6H141v6.5q0 1.2 1.2 1.3h3v1.6zm10.8.2q-1.3 0-2.3-.5t-1.5-1.5-.5-2.2v-3q0-1.2.5-2.2.6-.9 1.5-1.5t2.3-.5 2.3.5q.9.6 1.5 1.5t.5 2.2v3q0 1.3-.5 2.2t-1.5 1.5-2.3.5m0-1.6q1.2 0 1.8-.7t.7-2V524q0-1.2-.7-1.9t-1.8-.7-1.8.7-.7 2v2.9q0 1.3.7 1.9.6.7 1.8.7m8.2 1.4v-11h1.8v2.1h.4l-.6 1.3q0-1.7.8-2.7.8-.9 2.3-.9 1.7 0 2.7 1.1a4 4 0 0 1 1 3v.6H168v-.5q0-1.3-.7-2t-1.7-.7-1.8.7-.7 2v7zm15.8.2q-1.3 0-2.3-.5t-1.5-1.5-.5-2.2v-3q0-1.3.5-2.2t1.5-1.5 2.3-.5 2.2.5 1.5 1.5.6 2.2v2h-6.9v1q0 1.3.7 2t1.9.7q1 0 1.7-.4.7-.3.7-1.1h1.8a3 3 0 0 1-1.3 2.2 5 5 0 0 1-3 .8m2.5-6.5v-.7q0-1.3-.6-2t-2-.7q-1.1 0-1.8.7t-.7 2v.6h5.3zm-76.7 34.4q-.8 0-1.5-.3t-1-.8-.3-1.3h1q0 .7.5 1t1.3.4 1.2-.3.4-1-.3-1-.8-.5l-1.2-.4q-.8-.3-1.4-1t-.5-1.5q0-.6.4-1.2.3-.5.9-.8.5-.3 1.3-.3 1.2 0 1.9.7t.7 1.7h-1.1q0-.7-.4-1t-1.1-.4-1.1.3-.4 1l.3.9q.3.4.8.6l1.2.3q.8.3 1.4 1t.5 1.5q0 .8-.4 1.3-.3.5-1 .8-.5.3-1.3.3m8.6 2-1.3-2h.1-.3l-1.4-.3q-.6-.3-.9-.9t-.3-1.4v-3.8q0-.8.3-1.4t1-.9l1.3-.3q.8 0 1.4.3t1 1 .3 1.3v3.8q0 .9-.4 1.4-.3.6-1 1l1.4 2.3zm-1.5-3q.8.1 1.2-.4t.4-1.2v-3.8q0-.7-.4-1.2t-1.2-.4-1.1.4-.4 1.2v3.8q0 .8.4 1.2.5.5 1.1.5m5 .9v-8.8h1v7.8h4v1zm14.1 0v-8.8h2.7q.9 0 1.4.4l1 .8.2 1.4q0 .8-.4 1.5t-1.3.9l1.9 3.8H133l-1.7-3.7H130v3.7zm1.1-4.7h1.6q.7 0 1.1-.4t.4-1.1-.4-1.2-1-.4H130zm8 4.8q-1 0-1.6-.5t-.6-1.5.6-1.4 1.6-.5h2v-.7q0-.6-.3-1-.4-.3-1-.3t-1 .3-.5.6h-1q0-.8.7-1.3t1.8-.5 1.8.6.6 1.6v4.5h-1v-1.3h-.2l.2-.1q0 .6-.6 1.1-.5.4-1.5.4m.3-.8q.8 0 1.3-.4t.5-1v-1h-2q-.6 0-1 .4l-.2.8.3.9q.5.3 1.1.3m7.6.8-1.4-.3-1-.8q-.3-.6-.3-1.4v-1.8q0-.8.4-1.4.3-.5.9-.8l1.4-.3q1 0 1.8.6.7.6.7 1.7h-1q0-.7-.5-1-.3-.4-1-.4-.8 0-1.2.4t-.4 1.2v1.8q0 .8.4 1.2t1.2.4 1-.4q.4-.3.4-1h1.1q0 1-.7 1.7t-1.8.6m7.1 0q-.8 0-1.4-.3t-.9-.9-.3-1.3v-1.8q0-.8.3-1.3l1-1 1.3-.2q.8 0 1.4.3t.9.9.3 1.3v1.2h-4.1v.6q0 .8.4 1.2.3.4 1.1.4.7 0 1-.2t.5-.7h1q0 .9-.8 1.3a3 3 0 0 1-1.7.5m1.5-3.9v-.4q0-.8-.4-1.2-.3-.4-1.1-.4t-1.1.4-.4 1.2v.3zm10.2 5.1L169 549h1l-4.2 11.3zm17.1-1.2q-.7 0-1.5-.3-.6-.2-.9-.8l-.4-1.3h1.1q0 .7.5 1t1.2.4 1.2-.3.4-1-.2-1-.9-.5l-1.1-.4q-1-.3-1.4-1-.6-.6-.5-1.5 0-.6.3-1.2t.9-.8q.6-.3 1.4-.3 1 0 1.8.7.7.6.7 1.7h-1q0-.7-.5-1-.3-.4-1-.4-.8 0-1.1.3-.4.4-.4 1 0 .4.3.9t.8.6l1.2.3q.9.3 1.3 1 .6.7.5 1.5t-.3 1.3-1 .8q-.6.3-1.4.3m7.2 0q-.8 0-1.5-.3t-1-.8l-.3-1.3h1.1q0 .7.5 1t1.2.4 1.2-.3.4-1-.3-1q-.2-.3-.8-.5l-1.1-.4q-1-.3-1.4-1-.5-.6-.5-1.5 0-.6.3-1.2t.9-.8q.6-.3 1.4-.3 1 0 1.8.7.7.6.7 1.7h-1q0-.7-.5-1-.3-.4-1-.4t-1.2.3-.3 1q0 .4.3.9t.8.6l1.2.3q.9.3 1.3 1 .6.7.5 1.5t-.3 1.3-1 .8q-.5.3-1.4.3m4.7-.1v-8.8h1.4l2.7 7.5-.2-2.5v-5h1v8.8h-1.3l-2.7-7.5.1 2.6v4.9zm7.2 0V558l2.7-2.8 1-1.3.3-1.1q0-.8-.5-1.2-.3-.4-1-.4-.9 0-1.3.4-.3.5-.4 1.2h-1q0-.8.3-1.4t1-.9l1.4-.3q.8 0 1.3.3t1 .9l.2 1.3q.1.8-.4 1.5-.3.7-1.3 1.7l-2.1 2.2h4v1z"/></g><g filter="url(#d)"><rect width="297" height="127" x="385.5" y="473.5" fill="#f59e0b" fill-opacity=".1" stroke="#f59e0b" rx="33.5"/><path fill="#fac775" d="M482.1 531v-1.6h3V518h-3v-1.6h7.8v1.6h-3v11.4h3v1.6zm11.8 0v-11h1.8v2.1h.3l-.3.4q0-1.2.7-2a3 3 0 0 1 2.2-.7q1.7 0 2.6 1t1 2.8v7.4h-1.8v-7.2q0-1.2-.6-1.8t-1.7-.6q-1.2 0-1.8.6t-.6 2v7zm17.3 0a3 3 0 0 1-2.2-.8q-.8-.7-.8-2.1v-6.5h-3V520h3v-3.1h1.8v3.1h4.4v1.6H510v6.5q0 1.2 1.2 1.3h3v1.6zm10.8.2q-1.3 0-2.3-.5t-1.5-1.5-.5-2.2v-3q0-1.3.5-2.2t1.5-1.5 2.3-.5 2.3.5 1.5 1.5.5 2.2v2h-6.8v1q0 1.3.6 2t2 .7q1 0 1.6-.4.6-.3.8-1.1h1.8a3 3 0 0 1-1.4 2.2 5 5 0 0 1-2.9.8m2.6-6.5v-.7q0-1.3-.7-2t-1.9-.7-1.9.7-.6 2v.6h5.2zm6.6 9.9V533h3.5q.9 0 1.2-.4.4-.5.4-1.2V528h-.3l.4-.3q0 1.2-.8 1.9t-2.2.7q-1.7 0-2.7-1.1-1-1-1-3v-2.3q0-2 1-3t2.7-1.1q1.4 0 2.2.7t.8 1.9l-.4-.3h.4V520h1.7v11.4a3 3 0 0 1-.9 2.3q-.9.9-2.5.9zm2.8-5.9q1 0 1.7-.7t.7-1.9V524q0-1.2-.7-2-.6-.6-1.7-.6t-1.8.6-.6 2v2.1q0 1.3.6 2t1.8.6m8.2 2.3v-11h1.8v2.1h.4l-.6 1.3q0-1.7.8-2.7.8-.9 2.3-.9 1.6 0 2.7 1.1a4 4 0 0 1 1 3v.6H549v-.5q0-1.3-.7-2t-1.7-.7-1.8.7-.7 2v7zm14.8.2a4 4 0 0 1-2.7-.9q-1-.9-1-2.4a3 3 0 0 1 1-2.4 4 4 0 0 1 2.7-.9h3.4v-1.1q0-1-.6-1.6-.6-.5-1.8-.5a3 3 0 0 0-1.6.4q-.6.4-.8 1.1h-1.8q.3-1.5 1.4-2.3t2.9-.8q2 0 3 1t1 2.6v7.6h-1.7v-2.1h-.3l.3-.3q0 1.2-1 1.9a4 4 0 0 1-2.4.7m.5-1.4q1.2 0 2-.7t.9-1.6v-1.6H557a2 2 0 0 0-1.4.5q-.5.5-.5 1.4t.6 1.5q.6.5 1.8.5m13.7 1.2a3 3 0 0 1-2.2-.8q-.9-.7-.8-2.1v-6.5H565V520h3v-3.1h1.9v3.1h4.4v1.6H570v6.5q0 1.2 1.2 1.3h3v1.6zm10.8.2q-1.4 0-2.3-.5t-1.5-1.5q-.5-1-.5-2.2v-3q0-1.3.5-2.2t1.5-1.5 2.3-.5 2.2.5 1.5 1.5.6 2.2v2h-6.9v1q0 1.3.7 2t1.9.7q1 0 1.7-.4.6-.3.7-1.1h1.8a3 3 0 0 1-1.3 2.2 5 5 0 0 1-3 .8m2.5-6.5v-.7q0-1.3-.6-2t-2-.7q-1.1 0-1.8.7t-.7 2v.6h5.3zm-110 34.3v-8.8h2.8q.8 0 1.3.4l1 .8q.3.6.3 1.4t-.5 1.5q-.4.6-1.3.9l1.9 3.8h-1.3l-1.7-3.7h-1.4v3.7zm1.1-4.7h1.7q.6 0 1-.4t.4-1.1q.1-.7-.4-1.2t-1-.4h-1.7zm8.1 4.7v-7.8h-2.4v-1h5.9v1h-2.4v7.8zm4.7 0 2.3-8.8h1.5l2.2 8.8h-1l-.6-2.3H490l-.6 2.3zm2-3.2h2.1l-.6-2.7-.5-2-.4 2zm12.7 4.5 4.3-11.3h1.1l-4.2 11.3zm14.1-1.3 2.3-8.8h1.4l2.3 8.8h-1l-.7-2.3h-2.6l-.6 2.3zm2-3.2h2.1l-.7-2.7-.4-2-.4 2zm5.7 3.2v-8.8h2.8q.9 0 1.4.4.6.3 1 .9.3.5.3 1.3t-.3 1.4q-.4.6-1 .9l-1.4.3H526v3.6zm1-4.6h1.8q.8 0 1.2-.4t.4-1.2q0-.7-.4-1.2t-1.2-.4H526zm6.4 4.6v-1h1.8v-6.8h-1.8v-1h4.6v1h-1.7v6.8h1.7v1zm9.3.1q-.7 0-1.2-.2l-.8-.6q-.3-.4-.3-1h1q.1.4.4.6.4.3.9.2h.5q.6 0 1-.2.3-.3.3-.7t-.3-.7-.9-.3l-.8-.2q-1 0-1.5-.6-.5-.4-.5-1.2t.6-1.4 1.7-.5h.4q1 0 1.6.4t.7 1.2h-1.1q0-.3-.4-.4-.2-.2-.8-.2h-.4q-.6 0-1 .2l-.2.7q0 .3.3.6l.7.3.9.1q1 .1 1.5.6t.5 1.3q0 .9-.5 1.5t-1.8.5zm11.9 1.2 4.2-11.3h1.2l-4.3 11.3zm17.1-1.2q-.7 0-1.5-.3-.6-.2-1-.8l-.3-1.3h1.1q0 .7.5 1t1.2.4 1.2-.3.4-1-.3-1q-.2-.3-.8-.5l-1.1-.4q-1-.3-1.4-1-.5-.6-.5-1.5 0-.6.3-1.2t.9-.8q.6-.3 1.4-.3 1 0 1.8.7.7.6.7 1.7h-1q0-.7-.5-1t-1-.4-1.2.3-.3 1q0 .4.3.9t.8.6l1.2.3q.9.3 1.3 1t.5 1.5q0 .8-.3 1.3-.4.5-1 .8t-1.4.3m4.7-.1v-8.8h2.2q.9 0 1.5.4.6.3 1 .9.3.6.3 1.4v3.5q0 .8-.3 1.4-.4.6-1 .9l-1.5.3zm1-1h1.2q.9 0 1.3-.4t.4-1.2v-3.5q0-.9-.4-1.3t-1.3-.4h-1.1zm6.2 1v-8.8h1v3.8h1.4l1.9-3.8h1.2l-2.2 4.3 2.3 4.5h-1.2l-2-4h-1.3v4zm9.5.1q-.7 0-1.2-.2l-.8-.6-.4-1h1.1q0 .4.4.6.3.3.9.2h.5q.6 0 1-.2l.2-.7q0-.4-.3-.7t-.8-.3l-.9-.2q-1 0-1.4-.6-.5-.4-.5-1.2t.6-1.4 1.7-.5h.4q1 0 1.5.4t.7 1.2h-1l-.4-.4q-.3-.2-.8-.2h-.4q-.7 0-1 .2l-.2.7.2.6.8.3.9.1q1 .1 1.5.6t.5 1.3q0 .9-.6 1.5t-1.7.5z"/></g><g filter="url(#e)"><g filter="url(#f)" shape-rendering="crispEdges"><rect width="298" height="128" x="4" y="677" fill="#ed6d20" fill-opacity=".1" rx="34"/><rect width="297" height="127" x="4.5" y="677.5" stroke="#ed6d20" rx="33.5"/></g><path fill="#f0997b" d="m112 735 3.8-14.6h2.4L122 735h-1.8l-1-3.9h-4.4l-1 3.9zm3.2-5.4h3.7l-1.2-4.5-.7-3.3-.7 3.3zm9.7 5.4v-11h1.8v2.1h.3l-.3.4q0-1.2.7-2a3 3 0 0 1 2.2-.7q1.7 0 2.6 1t1 2.8v7.4h-1.8v-7.2q0-1.2-.6-1.8t-1.7-.6q-1.2 0-1.8.6t-.6 2v7zm15.2.2a4 4 0 0 1-2.8-.9 3 3 0 0 1-1-2.4 3 3 0 0 1 1-2.4 4 4 0 0 1 2.7-.9h3.4v-1.1q0-1-.6-1.6-.6-.5-1.7-.5a3 3 0 0 0-1.7.4q-.6.4-.7 1.1h-1.8q0-1.5 1.3-2.3 1.2-.8 3-.8t3 1q1 1 1 2.6v7.6h-1.7v-2.1h-.3l.3-.3q0 1.2-1 1.9a4 4 0 0 1-2.4.7m.4-1.4q1.2 0 2-.7 1-.6 1-1.6v-1.6H140a2 2 0 0 0-1.5.5q-.5.5-.5 1.4t.6 1.5q.7.5 1.8.5m14 1.2q-1 0-1.7-.4t-1.1-1-.4-1.7V722h-3.7v-1.6h5.5v11.5q0 .7.4 1 .3.5 1 .5h3.5v1.6zm8 3.6 1.7-4.3L160 724h2l2.6 6.8.2.8.2.8.5-1.6 2.4-6.8h1.9l-5.4 14.6zm14.1-3.4q-1 0-2-.4-.7-.4-1.2-1a3 3 0 0 1-.6-1.5h1.8q0 .6.6 1l1.4.3h.9q1 0 1.6-.5.5-.4.5-1.1t-.5-1.1-1.4-.6l-1.5-.2q-1.5-.3-2.4-1t-.8-2.2 1-2.2q1-.9 2.8-.9h.8q1.6 0 2.5.8a3 3 0 0 1 1.2 2h-1.8q-.2-.6-.6-.8-.6-.4-1.3-.4h-.8q-1 0-1.5.4t-.5 1.2q0 .6.4 1 .4.3 1.3.4l1.5.3q1.8.2 2.6 1 .8.7.8 2.2a3 3 0 0 1-1 2.4q-.9.9-3 .9zm12.4 0q-1.3 0-2.3-.5t-1.5-1.5-.5-2.2v-3q0-1.3.5-2.2t1.5-1.5 2.3-.5 2.2.5 1.5 1.5.6 2.2v2h-6.9v1q0 1.3.7 2t1.9.7q1 0 1.7-.4.6-.3.7-1.1h1.8a3 3 0 0 1-1.3 2.2 5 5 0 0 1-3 .8m2.5-6.5v-.7q0-1.3-.6-2t-2-.7q-1.1 0-1.8.7t-.7 2v.6h5.3zM131.2 763l-2.3-8.8h1.1l1.5 6 .4 2 .4-2 1.5-6h1.1l-2.3 8.8zm5.3 0v-1h2.4v-4.6h-2v-1h3v5.6h2.3v1zm2.8-7.8q-.5 0-.6-.2l-.3-.5q0-.4.3-.6t.6-.2q.5 0 .6.2.3.1.2.6 0 .3-.2.5zm7 8q-.8 0-1.4-.4l-.9-.9q-.3-.6-.3-1.3v-1.8q0-.8.3-1.3l1-1 1.3-.2q.8 0 1.4.3t.9.9.3 1.3v1.2h-4.1v.6q0 .8.4 1.2.3.4 1.1.4.7 0 1-.2t.5-.7h1q0 .9-.8 1.3a3 3 0 0 1-1.7.5m1.5-4v-.4q0-.8-.4-1.2-.3-.4-1-.4-.9 0-1.2.4-.4.4-.4 1.2v.3h3.1zm3.6 3.8-1-6.6h.9l.6 4.7.2 1 .2-1 .7-4.7h1l.8 4.7.2.6v-.6l.8-4.7h.9l-1.1 6.6h-1.2l-.7-4.6-.2-1.2-.2 1.2-.7 4.6zm9.3.1q-.8 0-1.4-.3t-.9-.9-.3-1.3v-1.8q0-.8.3-1.3t1-1l1.3-.2q.8 0 1.4.3l.9.9q.3.5.3 1.3v1.2h-4.1v.6q0 .8.4 1.2.3.4 1.1.4.7 0 1-.2t.5-.7h1q0 .9-.8 1.3a3 3 0 0 1-1.7.5m1.5-3.9v-.4q0-.8-.4-1.2-.3-.4-1.1-.4t-1.1.4-.4 1.2v.3h3.1zm3.4 3.8v-6.6h1v1.3h.3l-.3.7q0-1 .4-1.6.6-.5 1.4-.5 1 0 1.7.6t.6 1.8v.4h-1v-.3q0-.8-.5-1.2-.3-.4-1-.4t-1.1.4-.4 1.2v4.2z"/></g><g filter="url(#g)"><rect width="297" height="127" x="385.5" y="288.5" fill="#a855f7" fill-opacity=".1" stroke="#a855f7" rx="33.5"/><path fill="#afa9ec" d="M500 346v-14.6h8.4v1.6h-6.6v4.6h6v1.6h-6v5.2h6.6v1.6zm11.9 0v-11h1.8v2.1h.3l-.3.4q0-1.2.7-2a3 3 0 0 1 2.2-.7q1.7 0 2.6 1t1 2.8v7.4h-1.8v-7.2q0-1.2-.6-1.8t-1.7-.6q-1.2 0-1.8.6t-.6 2v7zm12.3 0v-11h1.8v2.1h.4l-.6 1.3q0-1.7.8-2.7.8-.9 2.3-.9 1.6 0 2.7 1.1a4 4 0 0 1 1 3v.6H531v-.5q0-1.3-.7-2t-1.7-.7-1.8.7-.7 2v7zm11.5 0v-1.6h3.9v-7.8h-3.4V335h5.2v9.4h3.7v1.6zm4.6-13q-.6 0-1-.3-.4-.4-.4-1t.4-.9 1-.3 1 .3.4 1-.4.9-1 .3m11.8 13.2q-1.5 0-2.3-.5-1-.5-1.6-1.4-.5-1-.5-2.3v-3q0-1.3.5-2.3t1.6-1.4 2.3-.5q1.9 0 3 1t1.3 2.8h-1.8q0-1-.8-1.6-.6-.6-1.7-.6t-2 .7q-.6.6-.6 1.9v3q0 1.2.7 2 .6.6 1.9.6 1 0 1.7-.6t.8-1.6h1.8q0 1.8-1.3 2.8-1.1 1-3 1m7.7-.2v-14.6h1.8v5.7h.4l-.4.4q0-1.2.8-2a3 3 0 0 1 2.2-.7q1.6 0 2.6 1t1 2.8v7.4h-1.8v-7.2q0-1.2-.7-1.8t-1.7-.7-1.7.7-.7 2v7zm-58.9 28-2.2-6.6h1l1.6 4.4.3 1.4.4-1.4 1.5-4.4h1l-2.1 6.6zm7.4 0v-7.8h-2.4v-1h5.9v1h-2.4v7.8zm4.7 0 2.3-8.8h1.4l2.3 8.8h-1l-.7-2.3h-2.6l-.6 2.3zm2-3.2h2.1l-.7-2.7-.4-2-.4 2zm8.3 3.3-1.4-.3-1-.8-.2-1.4v-4q0-.8.3-1.3t.9-.9l1.4-.3q.8 0 1.3.3t1 .9l.2 1.3h-1q0-.7-.5-1.1t-1-.4-1.2.4-.4 1.1v4q0 .8.4 1.2t1.2.4q.6 0 1-.4t.4-1.2v-1H523v-1h2.8v2q0 .8-.3 1.3t-.9 1zm11.6 1.2 4.3-11.3h1.1l-4.3 11.3zm16.3-1.3-2.2-8.8h1.1l1.5 6 .4 2 .4-2 1.5-6h1l-2.2 8.8zm5.5 0v-8.8h2.8q.8 0 1.4.4.6.3 1 .9.3.5.3 1.3t-.4 1.4q-.3.6-.9.9l-1.4.3h-1.7v3.6zm1-4.6h1.8q.8 0 1.1-.4.5-.5.5-1.2t-.5-1.2q-.4-.4-1-.4h-1.8zm8.7 4.7q-.8 0-1.5-.3t-1-.8l-.3-1.3h1.1q0 .7.5 1t1.2.4 1.2-.3.4-1-.3-1-.8-.5l-1.1-.4q-1-.3-1.4-1-.5-.6-.5-1.5 0-.6.3-1.2t.9-.8q.5-.3 1.4-.3 1 0 1.8.7.7.6.7 1.7h-1q0-.7-.5-1t-1-.4-1.2.3-.3 1 .3.9.8.6l1.2.3q.9.3 1.3 1t.5 1.5q0 .8-.3 1.3-.4.5-1 .8t-1.4.3"/></g><g filter="url(#h)"><path fill="#1f1f1f" d="M151.6 203.4q1.4 1.2 2.8 0l12.7-12.7a2 2 0 1 0-2.8-2.8L153 199.2l-11.3-11.3a2 2 0 1 0-2.8 2.8zM153 128h-2v74h4v-74z"/></g><g filter="url(#i)"><path fill="#1f1f1f" d="M151.6 676.4q1.4 1.2 2.8 0l12.7-12.7a2 2 0 1 0-2.8-2.8L153 672.2l-11.3-11.3a2 2 0 1 0-2.8 2.8zM153 601h-2v74h4v-74z"/></g><g filter="url(#j)"><path fill="#1f1f1f" d="M151.6 472.4q1.4 1.2 2.8 0l12.7-12.7a2 2 0 1 0-2.8-2.8L153 468.2l-11.3-11.3a2 2 0 1 0-2.8 2.8zM153 332h-2v139h4V332z"/></g><g fill="#1f1f1f" filter="url(#k)"><path d="M384.4 538.4c.8-.8.8-2 0-2.8l-12.7-12.7a2 2 0 1 0-2.8 2.8l11.3 11.3-11.3 11.3a2 2 0 1 0 2.8 2.8zM303 537v2h80v-4h-80z"/><path d="M302.6 535.6a2 2 0 0 0 0 2.8l12.7 12.7a2 2 0 1 0 2.8-2.8L306.8 537l11.3-11.3a2 2 0 1 0-2.8-2.8zM383 537v-2h-79v4h79z"/></g><g filter="url(#l)"><path fill="#1f1f1f" d="M384.4 372.4q1.2-1.4 0-2.8l-12.7-12.7a2 2 0 1 0-2.8 2.8l11.3 11.3-11.3 11.3a2 2 0 1 0 2.8 2.8zM153 371v2h230v-4H153z"/><path stroke="#1f1f1f" stroke-width="4" d="M155 332v39"/></g><defs><filter id="a" width="306" height="136" x="0" y="0" color-interpolation-filters="sRGB" filterUnits="userSpaceOnUse"><feFlood flood-opacity="0" result="BackgroundImageFix"/><feColorMatrix in="SourceAlpha" result="hardAlpha" values="0 0 0 0 0 0 0 0 0 0 0 0 0 0 0 0 0 0 127 0"/><feOffset dy="4"/><feGaussianBlur stdDeviation="2"/><feComposite in2="hardAlpha" operator="out"/><feColorMatrix values="0 0 0 0 0.929412 0 0 0 0 0.427451 0 0 0 0 0.12549 0 0 0 0.1 0"/><feBlend in2="BackgroundImageFix" result="effect1_dropShadow_1_163"/><feBlend in="SourceGraphic" in2="effect1_dropShadow_1_163" result="shape"/></filter><filter id="b" width="306" height="136" x="0" y="204" color-interpolation-filters="sRGB" filterUnits="userSpaceOnUse"><feFlood flood-opacity="0" result="BackgroundImageFix"/><feColorMatrix in="SourceAlpha" result="hardAlpha" values="0 0 0 0 0 0 0 0 0 0 0 0 0 0 0 0 0 0 127 0"/><feOffset dy="4"/><feGaussianBlur stdDeviation="2"/><feComposite in2="hardAlpha" operator="out"/><feColorMatrix values="0 0 0 0 0.231373 0 0 0 0 0.509804 0 0 0 0 0.964706 0 0 0 0.1 0"/><feBlend in2="BackgroundImageFix" result="effect1_dropShadow_1_163"/><feBlend in="SourceGraphic" in2="effect1_dropShadow_1_163" result="shape"/></filter><filter id="c" width="306" height="136" x="0" y="473" color-interpolation-filters="sRGB" filterUnits="userSpaceOnUse"><feFlood flood-opacity="0" result="BackgroundImageFix"/><feColorMatrix in="SourceAlpha" result="hardAlpha" values="0 0 0 0 0 0 0 0 0 0 0 0 0 0 0 0 0 0 127 0"/><feOffset dy="4"/><feGaussianBlur stdDeviation="2"/><feComposite in2="hardAlpha" operator="out"/><feColorMatrix values="0 0 0 0 0.0784314 0 0 0 0 0.556863 0 0 0 0 0.556863 0 0 0 0.1 0"/><feBlend in2="BackgroundImageFix" result="effect1_dropShadow_1_163"/><feBlend in="SourceGraphic" in2="effect1_dropShadow_1_163" result="shape"/></filter><filter id="d" width="306" height="136" x="381" y="473" color-interpolation-filters="sRGB" filterUnits="userSpaceOnUse"><feFlood flood-opacity="0" result="BackgroundImageFix"/><feColorMatrix in="SourceAlpha" result="hardAlpha" values="0 0 0 0 0 0 0 0 0 0 0 0 0 0 0 0 0 0 127 0"/><feOffset dy="4"/><feGaussianBlur stdDeviation="2"/><feComposite in2="hardAlpha" operator="out"/><feColorMatrix values="0 0 0 0 0.960784 0 0 0 0 0.619608 0 0 0 0 0.0431373 0 0 0 0.1 0"/><feBlend in2="BackgroundImageFix" result="effect1_dropShadow_1_163"/><feBlend in="SourceGraphic" in2="effect1_dropShadow_1_163" result="shape"/></filter><filter id="e" width="306" height="136" x="0" y="677" color-interpolation-filters="sRGB" filterUnits="userSpaceOnUse"><feFlood flood-opacity="0" result="BackgroundImageFix"/><feColorMatrix in="SourceAlpha" result="hardAlpha" values="0 0 0 0 0 0 0 0 0 0 0 0 0 0 0 0 0 0 127 0"/><feOffset dy="4"/><feGaussianBlur stdDeviation="2"/><feComposite in2="hardAlpha" operator="out"/><feColorMatrix values="0 0 0 0 0.929412 0 0 0 0 0.427451 0 0 0 0 0.12549 0 0 0 0.1 0"/><feBlend in2="BackgroundImageFix" result="effect1_dropShadow_1_163"/><feBlend in="SourceGraphic" in2="effect1_dropShadow_1_163" result="shape"/></filter><filter id="f" width="306" height="136" x="0" y="677" color-interpolation-filters="sRGB" filterUnits="userSpaceOnUse"><feFlood flood-opacity="0" result="BackgroundImageFix"/><feColorMatrix in="SourceAlpha" result="hardAlpha" values="0 0 0 0 0 0 0 0 0 0 0 0 0 0 0 0 0 0 127 0"/><feOffset dy="4"/><feGaussianBlur stdDeviation="2"/><feComposite in2="hardAlpha" operator="out"/><feColorMatrix values="0 0 0 0 0 0 0 0 0 0 0 0 0 0 0 0 0 0 0.25 0"/><feBlend in2="BackgroundImageFix" result="effect1_dropShadow_1_163"/><feBlend in="SourceGraphic" in2="effect1_dropShadow_1_163" result="shape"/></filter><filter id="g" width="306" height="136" x="381" y="288" color-interpolation-filters="sRGB" filterUnits="userSpaceOnUse"><feFlood flood-opacity="0" result="BackgroundImageFix"/><feColorMatrix in="SourceAlpha" result="hardAlpha" values="0 0 0 0 0 0 0 0 0 0 0 0 0 0 0 0 0 0 127 0"/><feOffset dy="4"/><feGaussianBlur stdDeviation="2"/><feComposite in2="hardAlpha" operator="out"/><feColorMatrix values="0 0 0 0 0.658824 0 0 0 0 0.333333 0 0 0 0 0.968627 0 0 0 0.1 0"/><feBlend in2="BackgroundImageFix" result="effect1_dropShadow_1_163"/><feBlend in="SourceGraphic" in2="effect1_dropShadow_1_163" result="shape"/></filter><filter id="h" width="37.5" height="84" x="134.3" y="128" color-interpolation-filters="sRGB" filterUnits="userSpaceOnUse"><feFlood flood-opacity="0" result="BackgroundImageFix"/><feColorMatrix in="SourceAlpha" result="hardAlpha" values="0 0 0 0 0 0 0 0 0 0 0 0 0 0 0 0 0 0 127 0"/><feOffset dy="4"/><feGaussianBlur stdDeviation="2"/><feComposite in2="hardAlpha" operator="out"/><feColorMatrix values="0 0 0 0 0 0 0 0 0 0 0 0 0 0 0 0 0 0 0.25 0"/><feBlend in2="BackgroundImageFix" result="effect1_dropShadow_1_163"/><feBlend in="SourceGraphic" in2="effect1_dropShadow_1_163" result="shape"/></filter><filter id="i" width="37.5" height="84" x="134.3" y="601" color-interpolation-filters="sRGB" filterUnits="userSpaceOnUse"><feFlood flood-opacity="0" result="BackgroundImageFix"/><feColorMatrix in="SourceAlpha" result="hardAlpha" values="0 0 0 0 0 0 0 0 0 0 0 0 0 0 0 0 0 0 127 0"/><feOffset dy="4"/><feGaussianBlur stdDeviation="2"/><feComposite in2="hardAlpha" operator="out"/><feColorMatrix values="0 0 0 0 0 0 0 0 0 0 0 0 0 0 0 0 0 0 0.25 0"/><feBlend in2="BackgroundImageFix" result="effect1_dropShadow_1_163"/><feBlend in="SourceGraphic" in2="effect1_dropShadow_1_163" result="shape"/></filter><filter id="j" width="37.5" height="149" x="134.3" y="332" color-interpolation-filters="sRGB" filterUnits="userSpaceOnUse"><feFlood flood-opacity="0" result="BackgroundImageFix"/><feColorMatrix in="SourceAlpha" result="hardAlpha" values="0 0 0 0 0 0 0 0 0 0 0 0 0 0 0 0 0 0 127 0"/><feOffset dy="4"/><feGaussianBlur stdDeviation="2"/><feComposite in2="hardAlpha" operator="out"/><feColorMatrix values="0 0 0 0 0 0 0 0 0 0 0 0 0 0 0 0 0 0 0.25 0"/><feBlend in2="BackgroundImageFix" result="effect1_dropShadow_1_163"/><feBlend in="SourceGraphic" in2="effect1_dropShadow_1_163" result="shape"/></filter><filter id="k" width="91" height="37.5" x="298" y="522.3" color-interpolation-filters="sRGB" filterUnits="userSpaceOnUse"><feFlood flood-opacity="0" result="BackgroundImageFix"/><feColorMatrix in="SourceAlpha" result="hardAlpha" values="0 0 0 0 0 0 0 0 0 0 0 0 0 0 0 0 0 0 127 0"/><feOffset dy="4"/><feGaussianBlur stdDeviation="2"/><feComposite in2="hardAlpha" operator="out"/><feColorMatrix values="0 0 0 0 0 0 0 0 0 0 0 0 0 0 0 0 0 0 0.25 0"/><feBlend in2="BackgroundImageFix" result="effect1_dropShadow_1_163"/><feBlend in="SourceGraphic" in2="effect1_dropShadow_1_163" result="shape"/></filter><filter id="l" width="240" height="61.7" x="149" y="332" color-interpolation-filters="sRGB" filterUnits="userSpaceOnUse"><feFlood flood-opacity="0" result="BackgroundImageFix"/><feColorMatrix in="SourceAlpha" result="hardAlpha" values="0 0 0 0 0 0 0 0 0 0 0 0 0 0 0 0 0 0 127 0"/><feOffset dy="4"/><feGaussianBlur stdDeviation="2"/><feComposite in2="hardAlpha" operator="out"/><feColorMatrix values="0 0 0 0 0 0 0 0 0 0 0 0 0 0 0 0 0 0 0.25 0"/><feBlend in2="BackgroundImageFix" result="effect1_dropShadow_1_163"/><feBlend in="SourceGraphic" in2="effect1_dropShadow_1_163" result="shape"/></filter></defs></svg>