<svg xmlns="http://www.w3.org/2000/svg" width="512" height="341" viewBox="0 0 512 341"><path fill="#2e2e2e" d="m136 70 15-1h216l4 1q4 2 4 6v194l-4 3-17 1H188l-53-1-3-3V77q-1-6 4-7"/><path fill="#4f4e4e" d="M185 89a33 33 0 1 1 6 65 33 33 0 0 1-6-65"/><path fill="#2e2e2e" d="M185 93a28 28 0 1 1 6 57 28 28 0 0 1-6-57"/><path fill="#d4d4d3" d="M186 96a26 26 0 1 1 4 51 26 26 0 0 1-4-51"/><path fill="#2e2e2e" d="M191 119v5c-6 4-10-7-2-7z"/><path fill="#e4624f" d="M189 117c4-2 10-10 14-12l-12 14z"/><path fill="#4f4e4e" d="M193 136a2 2 0 1 1-1 3zm-10 0 1 3a2 2 0 0 1-3-2zm1-29q2 0 3 2l-1 1-2 2z"/><path fill="#212121" d="M200 127q1 2-1 3-3-1 0-4"/><path fill="#2e2e2e" d="M203 127q2 2 1 4h-1q-2-2 0-4"/><path fill="#c8c8c8" d="M203 128v3z"/><path fill="#4f4e4e" d="m168 107 5 4q-3-1-5-4m39 0-5 3v-1zm-43 13h5v1h-3z"/><path fill="#2e2e2e" d="m189 107 1 1h-1l1 2-1 1-1-1h1l-1-2z"/><path fill="#4f4e4e" d="M188 97v5-6m19 24h5v1zm-36 11-3 3-1-1zm33-1 5 3v1l-3-2zm-27-30 3 5-1-1zm22 0q0 3-2 5v-1zm-25 27 1 1h-1l-1 1 1 2h1-1l-1-1z"/><path fill="#212121" d="M197 127v3l-1-3zm-6-20v3l-1-1z"/><path fill="#4f4e4e" d="m204 103-2 2zm-13-5v2h-1zm-12 1 1 3h-1zm17 0-1 3-1-1zm-28 31-1 1h-1z"/><path fill="#2e2e2e" d="M209 118h3z"/><path fill="#4f4e4e" d="m185 98 1 2z"/><path fill="#2e2e2e" d="m209 125 3 1zm-35-23 2 2z"/><path fill="#4f4e4e" d="m164 117 3 1zm151-29a33 33 0 1 1 6 66 33 33 0 0 1-6-66"/><path fill="#2e2e2e" d="M316 93a28 28 0 1 1 4 57 28 28 0 0 1-4-57"/><path fill="#d4d4d3" d="M316 96a26 26 0 1 1 4 51 26 26 0 0 1-4-51"/><path fill="#2e2e2e" d="m321 119-1 5h-5l-1-5a4 4 0 0 1 7 0"/><path fill="#e4624f" d="m330 107-9 11-2-2z"/><path fill="#4f4e4e" d="M312 136a2 2 0 1 1 0 3zm10 0a2 2 0 0 1 2 3 2 2 0 1 1-2-3m-8-29 3 1-1 2-2 1z"/><path fill="#212121" d="M330 127q2 2-1 3-3-1 0-4"/><path fill="#212121" d="M333 127q1 1-1 3h-1z"/><path fill="#d4d4d3" d="m333 128-1 2v-3"/><path fill="#4f4e4e" d="m298 107 5 4h-1q-3-1-4-4m39 0-4 3v-1zm-36 24-3 3-1-1zm-7-11h5v1zm13-20 2 5h-1zm10-3q2 3 1 5h-1z"/><path fill="#212121" d="M318 107v-1zh-1l2 2-1 1-1-1h1v-1h-1z"/><path fill="#4f4e4e" d="m328 100-2 5h-1z"/><path fill="#e4624f" d="m330 107 4-4z"/><path fill="#2e2e2e" d="M337 120h5v1h-1z"/><path fill="#4f4e4e" d="m334 131 5 2h-1zm-31-4 1 1-1 2 1 1h-1z"/><path fill="#212121" d="M320 107h1v4l-1-1zm7 20v3h-1v-3z"/><path fill="#2e2e2e" d="m304 102 2 2z"/><path fill="#212121" d="M323 98v3z"/><path fill="#4f4e4e" d="m326 99-1 3v-1z"/><path fill="#2e2e2e" d="M309 99v3z"/><path fill="#4f4e4e" d="m335 105-2 2zm-20-7v2zm-21 19 3 1z"/><path fill="#2e2e2e" d="m295 112 3 1z"/><path fill="#4f4e4e" d="m295 115 3 1z"/><path fill="#2e2e2e" d="m339 125 3 1z"/><path fill="#4f4e4e" d="m338 127 3 1zm-44-4h3zm43 7 2 1zm-85-1q5-1 9 1a21 21 0 0 1 11 12q4 10-2 20h-34q-9-17 5-30 5-3 11-3"/><path fill="#d4d4d3" d="m240 158-2-5c-3-10 3-20 12-22a17 17 0 0 1 13 3 17 17 0 0 1 8 10c0 3 0 12-3 13h-2c-5-7-15-8-21-2l-3 2z"/><path fill="#2e2e2e" d="m240 158-2-5c-3-10 3-20 12-22a17 17 0 0 1 13 3 17 17 0 0 1 8 10c0 3 0 12-3 13h-1l2-5a16 16 0 0 0-2-12 16 16 0 0 0-10-7c-14-3-23 13-16 24"/><path fill="#4f4e4e" d="m255 147-1 2h-2l-1-2a2 2 0 0 1 4 0"/><path fill="#e4624f" d="M254 146c2-2 6-7 8-7z"/><path fill="#c8c8c8" d="m263 139 1 2-1 1-1-2z"/><path fill="#2e2e2e" d="M253 135v4zm-14 13h4z"/><path fill="#d4d4d3" d="M256 157a1 1 0 1 1 1 1 1 1 0 0 1-1-2m-7 1a1 1 0 1 1 1 2 1 1 0 0 1-1-2"/><path fill="#4f4e4e" d="M250 90a16 16 0 1 1 6 32 16 16 0 0 1-6-32"/><path fill="#2e2e2e" d="M252 92a14 14 0 1 1 3 28 14 14 0 0 1-3-28"/><path fill="#d4d4d3" d="M251 94a12 12 0 0 1 4 24 12 12 0 0 1-11-4 12 12 0 0 1-2-12 12 12 0 0 1 9-8"/><path fill="#2e2e2e" d="M248 112h10v3h-10z"/><path fill="#d4d4d3" d="M249 114h7l1 1zm0-2h8v1h-7z"/><path fill="#2e2e2e" d="m255 106-3 1a2 2 0 0 1 2-3z"/><path fill="#e4624f" d="m254 104 7-5c-1 2-6 5-6 7z"/><path fill="#c8c8c8" d="m245 98 2 1v1h-2l-1-1z"/><path fill="#4f4e4e" d="M253 95v3zm-12 11 4 1zm-9 66 42 1 1 2v11l-1 2h-9l-33-1-1-7z"/><path fill="#212121" d="M237 175h14v10h-14z"/><path fill="#62a2c3" d="M238 176h12v7l-12 1z"/><path fill="#212121" d="M255 175h15v10h-15z"/><path fill="#e4624f" d="M263 176h5v8l-6-1h-5l-1-7z"/><path fill="#4f4e4e" d="M202 165a13 13 0 1 1 4 27 13 13 0 0 1-4-27"/><path fill="#2e2e2e" d="M203 168a11 11 0 1 1 3 22 11 11 0 0 1-3-22"/><path fill="#d4d4d3" d="M198 171a10 10 0 0 1 13 0 10 10 0 0 1 2 13 10 10 0 0 1-12 4 10 10 0 0 1-3-17"/><path fill="#c8c8c8" d="m198 171 2 2-1 1-1-1v1h-1v4l-3 1v-1z"/><path fill="#4f4e4e" d="M200 183h8v3h-8z"/><path fill="#d4d4d3" d="M201 183h6l1 1zm-1 2h7z"/><path fill="#2e2e2e" d="m206 179-2 1-1-1v-1l2-1z"/><path fill="#e4624f" d="m205 177 5-4-4 6z"/><path fill="#c8c8c8" d="M212 177h1l-1 3-1-1z"/><path fill="#706f6f" d="M204 170v2z"/><path fill="#4f4e4e" d="M335 165a13 13 0 1 1 3 27 13 13 0 0 1-3-27"/><path fill="#2e2e2e" d="M335 168a11 11 0 0 1 3 22 11 11 0 0 1-10-4 11 11 0 0 1-2-11 11 11 0 0 1 9-7"/><path fill="#c8c8c8" d="M335 169a10 10 0 1 1 3 20 10 10 0 0 1-3-20"/><path fill="#4f4e4e" d="M332 183h8v3h-7z"/><path fill="#d4d4d3" d="M333 185h7zm0-2 7 1q-4 1-7-1"/><path fill="#2e2e2e" d="m338 178-1 2h-1l-1-1v-1l2-1z"/><path fill="#e4624f" d="m337 177 5-4-4 5z"/><path fill="#706f6f" d="M327 179h3z"/><path fill="#4f4e4e" d="M168 165a13 13 0 1 1 3 27 13 13 0 0 1-3-27"/><path fill="#2e2e2e" d="M168 168a11 11 0 1 1-7 18 11 11 0 0 1-2-11 11 11 0 0 1 9-7"/><path fill="#c8c8c8" d="M160 175a10 10 0 1 1 0 2z"/><path fill="#d4d4d3" d="M160 175q2 1 2 4-2 0-2-2z"/><path fill="#4f4e4e" d="M166 183h7v3h-7z"/><path fill="#d4d4d3" d="m166 183 7 1h-6z"/><path fill="#c8c8c8" d="M166 185h7z"/><path fill="#2e2e2e" d="M169 178a1 1 0 0 1 2 1 1 1 0 1 1-2-1"/><path fill="#e4624f" d="M169 178v-8l1 8z"/><path fill="#4f4e4e" d="M300 166a13 13 0 1 1 3 26 13 13 0 0 1-3-26"/><path fill="#2e2e2e" d="M300 168a11 11 0 1 1 3 22 11 11 0 0 1-3-22"/><path fill="#c8c8c8" d="M300 169a10 10 0 1 1 4 20 10 10 0 0 1-4-20"/><path fill="#4f4e4e" d="M298 183h8v3h-8z"/><path fill="#d4d4d3" d="m298 183 7 1h-5zm0 2h7z"/><path fill="#4f4e4e" d="M301 177a1 1 0 1 1 1 3 1 1 0 0 1-1-3"/><path fill="#e4624f" d="m296 174 5 3-1 1z"/><path fill="#706f6f" d="M292 179h3z"/><path fill="#212121" d="M184 232h17v24l-1 1h-17v-25z"/><path fill="#4f4e4e" d="M193 235h6v19h-14v-10h8z"/><path fill="#2e2e2e" d="M193 235h6v19-11l-6 1zm-8 0h5v9h-5z"/><path fill="#212121" d="M152 232h19v16l-1 9h-18z"/><path fill="#4f4e4e" d="M163 235h6v12l-1 7h-14v-19h6v9h3z"/><path fill="#2e2e2e" d="M154 235h6v9h-6v10zm9 0h6v12l-1 7v-11l-5 1z"/><path fill="#212121" d="M247 232h15v25h-18v-25z"/><path fill="#4f4e4e" d="M254 235h6v19h-14v-10h8z"/><path fill="#2e2e2e" d="M254 235h6v19-11l-6 1zm-8 0h6v9h-6z"/><path fill="#212121" d="M216 232h16l-1 24-2 1h-16v-25z"/><path fill="#4f4e4e" d="m215 243 6 1h8v10h-14z"/><path fill="#2e2e2e" d="M215 235h6v9l-6-1zm9 0h6l-1 9h-5z"/><path fill="#212121" d="M274 232h19l-1 24-18 1z"/><path fill="#4f4e4e" d="m285 244 5-1v11h-14v-11l6 1z"/><path fill="#2e2e2e" d="M285 235h6l-1 8-5 1zm-9 0h6v9l-6-1z"/><path fill="#212121" d="M343 236a10 10 0 1 1 3 20 10 10 0 0 1-3-20"/><path fill="#4f4e4e" d="M343 238a7 7 0 0 1 3 15 7 7 0 0 1-9-6 7 7 0 0 1 6-9"/><path fill="#212121" d="M313 236a10 10 0 1 1 3 20 10 10 0 0 1-3-20"/><path fill="#4f4e4e" d="M313 238a7 7 0 0 1 9 7 7 7 0 0 1-7 8 7 7 0 0 1-8-6 7 7 0 0 1 6-9"/><path fill="#212121" d="M337 206h17v12h-17z"/><path fill="#e4624f" d="M339 208h13v8h-13z"/><path fill="#212121" d="M152 206h17v12h-17z"/><path fill="#62a2c3" d="M154 208h13v8h-13z"/><path fill="#212121" d="M256 206h16v12h-17z"/><path fill="#74b556" d="m257 207 13 1v8h-13z"/><path fill="#212121" d="M193 206h17v12h-17z"/><path fill="#e4624f" d="M195 208h13v8h-13z"/><path fill="#212121" d="M276 206h16v12h-16z"/><path fill="#e4624f" d="M277 208h14v8h-14z"/><path fill="#212121" d="M234 206h17v12h-17z"/><path fill="#74b556" d="M236 208h13v8h-13z"/><path fill="#212121" d="M172 206h17v12h-17z"/><path fill="#62a2c3" d="M174 208h14v8h-14z"/><path fill="#212121" d="M214 206h17l-1 12h-16z"/><path fill="#e4624f" d="M215 208h14v8h-14z"/><path fill="#212121" d="M296 206h17v12h-17z"/><path fill="#62a2c3" d="M298 208h13v8h-13z"/><path fill="#212121" d="M317 206h17v12h-17z"/><path fill="#62a2c3" d="m319 207 13 1v8h-13z"/><path fill="#212121" d="M360 255a4 4 0 0 1 2 8 4 4 0 1 1-2-8m0-176a4 4 0 1 1 1 8 4 4 0 0 1-1-8M144 255l4 1a4 4 0 0 1-1 7 4 4 0 0 1-3-8m0-175 4 1a4 4 0 0 1-2 6 4 4 0 0 1-2-7"/><path fill="#c8c8c8" d="M156 226h10l3 1-2 1h-13q0-3 2-2m68 0q4-1 6 1v1h-8q-4 1-7-1v-1zm-34 0h9v2h-15l1-2zm55 0h15l1 2h-15zm31 0h15v2h-15z"/><path fill="#62a2c3" d="M313 227a3 3 0 1 1 2 5 3 3 0 0 1-2-5m30 0a3 3 0 1 1 2 5 3 3 0 0 1-2-5"/></svg>