<svg xmlns="http://www.w3.org/2000/svg" width="512" height="341" viewBox="0 0 512 341"><path fill="#313030" d="M246 162h16c11 0 15-3 15 10h45q11-2 20 4 1-4 4-3h1l3-1 6 4 1 1c0 4 3 3 1 7 11 6 11 9 11 21q3-1 3 3l1 16v54l-1 11v6c-2 13-13 17-24 16l-1 4-7 1c-5-1-10 2-9-5H182l-1 4q-4 2-10 1-8 1-7-5-8 1-17-4-6-4-7-12v-6l-1-10v-71q0-4 4-3l1-12q3-7 10-9v-5q0-2 2-3l6-4 4 1q4 0 4 2 9-4 19-3h42v-2c0-10 7-8 15-8"/><path fill="#504f4f" d="M246 162h16c11 0 15-3 15 10h23q-1 6-7 11l-4 1h-30l-40-1c-4-1-6-8-8-11h20v-2c0-10 7-8 15-8"/><path fill="#313030" d="M246 162h16c11 0 15-3 15 10h-46v-2c0-10 7-8 15-8"/><path fill="#222" d="M369 205q3-1 3 3l1 16v54l-1 11q-5 2-5-4v-78zm-226 0 2 2v80l-1 2h-4l-1-10v-71q0-4 4-3"/><path fill="#569047" d="m346 173 3-1 6 4 1 1c0 4 3 3 1 7l-16-8q1-4 4-3"/><path fill="#ef704e" d="m346 173 3-1 6 4 1 1v2z"/><path fill="#569047" d="m162 172 4 1q4-1 4 2l-16 9v-5q0-2 2-3z"/><path fill="#ef704e" d="m162 172 4 1-12 6q0-2 2-3z"/><path fill="#222" d="M164 311h18l-1 4q-4 2-10 1-8 1-7-5m167 0h17l-1 4-7 1c-5-1-10 2-9-5"/><path fill="#504f4f" d="M328 207a33 33 0 1 1 9 66 33 33 0 0 1-9-66"/><path fill="#222" d="M330 212a28 28 0 1 1 6 56 28 28 0 0 1-6-56"/><path fill="#504f4f" d="M314 227h37v26h-37z"/><path fill="#ef704e" d="M331 233a7 7 0 0 1 4 14 7 7 0 0 1-9-5 7 7 0 0 1 5-9"/><path fill="#f8f7f8" d="M331 235a5 5 0 0 1 7 3 5 5 0 0 1-4 7l-5-1a5 5 0 0 1 2-9"/><path fill="#313030" d="M332 236a4 4 0 0 1 1 7 4 4 0 1 1-1-7"/><path fill="#504f4f" d="M175 207a33 33 0 1 1 8 66 33 33 0 0 1-8-66"/><path fill="#222" d="M176 212a28 28 0 1 1 6 55 28 28 0 0 1-6-55"/><path fill="#504f4f" d="M176 227h21v26h-36v-26z"/><path fill="#ef704e" d="M177 233a7 7 0 0 1 7 2 7 7 0 0 1-3 12 7 7 0 0 1-4-14"/><path fill="#f8f7f8" d="M178 235a5 5 0 1 1 2 10 5 5 0 0 1-2-10"/><path fill="#313030" d="M179 236a4 4 0 0 1 0 7l-3-1a4 4 0 0 1 3-6"/><path fill="#222" d="M225 192h65q5 1 5 7v27q-1 6-7 6h-55c-6 0-17 2-17-7v-27q2-7 9-6"/><path fill="#7299ad" d="M223 196h66l2 2-2 30h-62q-4 1-6-3l-1-9v-18z"/><path fill="#f8f7f8" d="M239 209h2l-3 4q2 3 1 6l-3-4q-3 3-3 5l-1-2-2-2h3l1-2-4-4h1q2-1 6 1zm30-7c6 0 4 2 4 5q1 3-2 5c-6 0-2-4-4-8z"/><path fill="#7299ad" d="m269 203 2 1 1 2h-3zm0 5h2l1 2h-3z"/><path fill="#f8f7f8" d="M224 223h29v2h-28zm34 0h28l1 2h-29zm25-13 3 1v11l-3-1zm-5-12h9v4h-9zm-53 0h8v4h-8zm36 4q7 0 5 5v4l-4 1-1-2h4v-2h-3v-1l3-1v-2l-3-1zm-9 0 2 4q2 1 2-3h1v5l-1 3-1-3c-1-1-6 1-3-6m28 11h2v9l-2-1zm-4 2c2 0 1 5 1 7h-2zm-4 2 2 1 1 4q-4 0-3-5m-3 2h2v3h-2z"/><path fill="#504f4f" d="M196 283h119q4 1 3 6 1 5-3 7l-28 1h-78l-13-1-2-2v-9z"/><path fill="#f2d278" d="M296 287h12q2 3 1 5h-8q-4 1-5-2zm-79 0h7q2 3 1 5c-2 0-9 1-9-2zm-14 0h7q2 3 1 5h-5q-6 0-3-5"/><path fill="#504f4f" d="M224 237h1q10 0 9 10v16h-5v-19l-2-3c-7-1-6 6-6 10v12h-5c1-5-1-18 2-22q2-4 6-4m62-1c9 1 9 9 9 16v11h-5v-20l-3-2q-3 0-5 3v19h-5l1-20q1-6 8-7m-86-52a9 9 0 1 1 3 17 9 9 0 0 1-3-17"/><path fill="#626161" d="m201 187 5 2a5 5 0 0 1-4 9 5 5 0 0 1-1-11"/><path fill="#504f4f" d="M161 187a9 9 0 0 1 2 18 9 9 0 0 1-8-4l-1-8a9 9 0 0 1 7-6"/><path fill="#626161" d="M161 191a5 5 0 1 1 3 10 5 5 0 0 1-3-10"/><path fill="#504f4f" d="M310 184a9 9 0 1 1 3 17 9 9 0 0 1-3-17"/><path fill="#626161" d="M310 187a5 5 0 0 1 2 11 5 5 0 1 1-2-11"/><path fill="#504f4f" d="M349 187a9 9 0 0 1 2 18 9 9 0 0 1-8-4 9 9 0 0 1-1-9 9 9 0 0 1 7-5"/><path fill="#626161" d="M348 191a5 5 0 0 1 3 10l-5-1a5 5 0 0 1 2-9"/><path fill="#504f4f" d="M265 247q3 0 4 3c0 3 1 18-1 19q0 3-3 2l-1-1-2-1v-20zm-19 0 2 2v20l-2 2q-6-1-5-6l1-16zm81-65h8v17h-8v-5l1-5z"/><path fill="#222" d="M327 182h8v7l-1-1h-6v1z"/><path fill="#313030" d="m328 188 1-3q2-2 5-1v4z"/><path fill="#222" d="M327 194q4 4 8 0v5h-8z"/><path fill="#504f4f" d="M177 182h8v17h-8z"/><path fill="#222" d="M177 182h8v7l-2-1h-5l-1 1z"/><path fill="#313030" d="M178 184h5v4h-5z"/><path fill="#222" d="M177 194q4 4 8 0v5h-8z"/><path fill="#504f4f" d="M285 257c6-1 4 7 4 11l-2 3q-5-1-4-7 0-5 2-7m-61 0q3 0 4 2v8l-2 4q-2 1-3-2-2-5-1-11zm26-218q-5-2-2-8l4-3h8l2 4v5l-2 3v59l3 16v48h-16v-48l3-20 1-20zm100 133 7-15 2-2 3 1 2 2c1 3-6 14-8 18zm-194 4-3-7-5-9q0-5 5-5l1 1 8 16z"/></svg>