<svg width="22" height="23" xmlns="http://www.w3.org/2000/svg" xmlns:xlink="http://www.w3.org/1999/xlink" xml:space="preserve" overflow="hidden"><defs><clipPath id="clip0"><rect x="1206" y="42" width="22" height="23"/></clipPath></defs><g clip-path="url(#clip0)" transform="translate(-1206 -42)"><path d="M11.0033 22C8.20915 22 5.41177 20.9444 3.27124 18.8301-0.127451 15.4739-0.970588 10.3399 1.17974 6.06209 1.41176 5.59804 1.98039 5.4085 2.44444 5.64379 2.9085 5.87582 3.09804 6.44444 2.86275 6.9085 1.0817 10.4542 1.77778 14.7059 4.59477 17.4902 8.16994 21.0229 13.9542 20.9869 17.4869 17.4118 19.1961 15.683 20.1275 13.3889 20.1111 10.9477 20.0948 8.5098 19.134 6.22549 17.4052 4.51634 14.5882 1.73203 10.3301 1.08824 6.80392 2.91503 6.33987 3.15359 5.77124 2.97386 5.53268 2.5098 5.29412 2.04575 5.47386 1.47712 5.93791 1.23856 10.1928-0.960784 15.3333-0.183007 18.7353 3.17647 23.0523 7.43791 23.0948 14.4183 18.8301 18.7353 16.6797 20.9118 13.8431 22 11.0033 22L11.0033 22Z" fill="#F3722E" transform="matrix(1 0 0 1.04545 1206 42)"/><path d="M10.915 18.3922C8.06863 18.3922 5.46732 16.7418 4.27451 14.1078 3.47059 12.3333 3.40523 10.3497 4.09477 8.52288 4.78105 6.69608 6.13726 5.24837 7.91177 4.44444 9.68301 3.64052 11.6667 3.57516 13.4967 4.26471 15.3235 4.95098 16.7712 6.30719 17.5752 8.0817 18.8824 10.9706 18.1863 14.3497 15.8399 16.4902 15.6699 16.6471 15.4052 16.634 15.2484 16.4641 15.0915 16.2941 15.1046 16.0261 15.2745 15.8726 17.3529 13.9771 17.9706 10.9869 16.8105 8.4281 16.098 6.85948 14.817 5.66013 13.1993 5.04902 11.5817 4.44118 9.8268 4.49673 8.25817 5.20915 6.68954 5.92157 5.48693 7.20261 4.87909 8.82026 4.27124 10.4379 4.3268 12.1928 5.03922 13.7614 6.19608 16.317 8.84967 17.8235 11.6503 17.5131 11.8824 17.4902 12.0882 17.6536 12.1144 17.8824 12.1405 18.1111 11.9739 18.3203 11.7451 18.3464 11.4673 18.3758 11.1928 18.3922 10.9216 18.3922L10.9216 18.3922Z" fill="#F3722E" transform="matrix(1 0 0 1.04545 1206 42)"/><path d="M11.0065 14.9706C8.82026 14.9706 7.03922 13.1928 7.03922 11.0033 7.03922 8.81373 8.81699 7.03595 11.0065 7.03595 13.1961 7.03595 14.9739 8.81373 14.9739 11.0033 14.9739 13.1928 13.1928 14.9706 11.0065 14.9706ZM11.0065 9.13399C9.97386 9.13399 9.13726 9.97386 9.13726 11.0033 9.13726 12.0327 9.97712 12.8725 11.0065 12.8725 12.0359 12.8725 12.8791 12.0327 12.8791 11.0033 12.8791 9.97386 12.0392 9.13399 11.0065 9.13399Z" fill="#F3722E" transform="matrix(1 0 0 1.04545 1206 42)"/></g></svg>