<svg width="63" height="70" xmlns="http://www.w3.org/2000/svg" xmlns:xlink="http://www.w3.org/1999/xlink" xml:space="preserve" overflow="hidden"><defs><clipPath id="clip0"><rect x="1006" y="41" width="63" height="70"/></clipPath></defs><g clip-path="url(#clip0)" transform="translate(-1006 -41)"><path d="M98.671 21.2865C98.671 15.1257 103.579 10.2985 110.032 10.2985 116.485 10.2985 121.401 15.1257 121.401 21.2865 121.401 27.4474 116.493 32.2961 110.032 32.2961 103.571 32.2961 98.671 27.4397 98.671 21.2865ZM117.254 21.2942C117.254 17.1718 114.053 14.1699 110.021 14.1699 105.988 14.1699 102.795 17.1718 102.795 21.2942 102.795 25.4165 105.996 28.4108 110.021 28.4108 114.046 28.4108 117.254 25.4088 117.254 21.2942Z" fill="#FFFFFF" transform="matrix(1 0 0 1.01832 1006 41)"/><path d="M131.819 31.8806 131.819 14.4773 124.546 14.4773 124.523 10.6987 143.175 10.6987 143.175 14.4773 135.912 14.4773 135.912 31.8806 131.819 31.8806Z" fill="#FFFFFF" transform="matrix(1 0 0 1.01832 1006 41)"/><path d="M148.705 31.8806 148.705 10.6987 152.86 10.6987 152.86 31.8806 148.705 31.8806Z" fill="#FFFFFF" transform="matrix(1 0 0 1.01832 1006 41)"/><path d="M159.395 21.2865C159.395 15.1257 164.303 10.2985 170.756 10.2985 177.209 10.2985 182.124 15.1257 182.124 21.2865 182.124 27.4474 177.216 32.2961 170.756 32.2961 164.295 32.2961 159.395 27.4397 159.395 21.2865ZM177.977 21.2942C177.977 17.1718 174.777 14.1699 170.744 14.1699 166.711 14.1699 163.519 17.1718 163.519 21.2942 163.519 25.4165 166.72 28.4108 170.744 28.4108 174.768 28.4108 177.977 25.4088 177.977 21.2942Z" fill="#FFFFFF" transform="matrix(1 0 0 1.01832 1006 41)"/><path d="M188.648 31.8806 188.648 10.6994 192.768 10.6994 205.306 25.9415 205.306 10.698 209.438 10.698 209.438 31.8799 205.355 31.8799 192.801 16.6643 192.801 31.8799 188.647 31.8799Z" fill="#FFFFFF" transform="matrix(1 0 0 1.01832 1006 41)"/><path d="M94.0614 58.4412 94.0614 37.2592 104.813 37.2592C109.841 37.2592 113.047 40.1302 113.047 44.5697 113.047 49.0092 110.112 51.8648 105.06 51.8648L98.2207 51.8648 98.2151 58.4419 94.0607 58.4419ZM98.2248 48.0799 105.027 48.0799C107.501 48.0799 108.885 46.6974 108.885 44.5523 108.885 42.4071 107.501 41.04 105.027 41.04L98.2248 41.04 98.2248 48.0792Z" fill="#FFFFFF" transform="matrix(1 0 0 1.01832 1006 41)"/><path d="M116.763 58.4412 116.763 37.2592 127.515 37.2592C132.543 37.2592 135.749 40.1302 135.749 44.5697 135.749 49.0092 132.814 51.8648 127.762 51.8648L120.922 51.8648 120.917 58.4419 116.762 58.4419ZM120.927 48.0799 127.729 48.0799C130.203 48.0799 131.587 46.6974 131.587 44.5523 131.587 42.4071 130.203 41.04 127.729 41.04L120.927 41.04 120.927 48.0792Z" fill="#FFFFFF" transform="matrix(1 0 0 1.01832 1006 41)"/><path d="M139.463 58.4419 139.463 37.2599 143.618 37.2599 143.594 54.6632 156.217 54.6632 156.217 58.4419 139.463 58.4419Z" fill="#FFFFFF" transform="matrix(1 0 0 1.01832 1006 41)"/><path d="M158.955 58.4419 158.955 37.2599 163.11 37.2599 163.11 58.4419 158.955 58.4419Z" fill="#FFFFFF" transform="matrix(1 0 0 1.01832 1006 41)"/><path d="M167.955 58.4412 167.955 37.2592 185.274 37.2592 185.274 41.0288 172.087 41.0288 172.087 46.0177 181.66 46.0177 181.66 49.6304 172.087 49.6304 172.087 54.6598 185.298 54.6598 185.298 58.4412 167.955 58.4412Z" fill="#FFFFFF" transform="matrix(1 0 0 1.01832 1006 41)"/><path d="M189.532 58.4419 189.532 37.2599 197.481 37.2558C205.345 37.2523 209.489 41.742 209.489 47.884 209.489 54.026 205.345 58.4419 197.481 58.4419L189.532 58.4419ZM193.662 54.6723 197.47 54.6646C202.905 54.6521 205.343 51.991 205.343 47.8917 205.343 43.7924 202.905 41.017 197.47 40.9891L193.662 40.9695 193.662 54.673Z" fill="#FFFFFF" transform="matrix(1 0 0 1.01832 1006 41)"/><path d="M88.1759 10.6994 80.1341 21.5005 72.2255 10.6994 68.085 10.6994 68.085 11.1902 72.9938 17.8899 80.1348 27.5972 88.0762 16.8337 88.0762 31.8799 92.2076 31.8799 92.2076 10.6994 88.1759 10.6994Z" fill="#FFFFFF" transform="matrix(1 0 0 1.01832 1006 41)"/><path d="M68.085 31.8806 72.2171 31.8806 72.2171 22.9472 68.085 17.3308 68.085 31.8806Z" fill="#FFFFFF" transform="matrix(1 0 0 1.01832 1006 41)"/><path d="M81.838 37.2495 78.5209 37.2495 71.3973 51.5539 75.7859 51.5539 80.1432 42.3918 85.685 54.0239 86.1479 54.9958 80.1062 54.9958 74.149 54.9958 71.6406 54.9958 69.6836 54.9958 67.9693 58.4377 71.6406 58.4377 72.512 58.4377 87.7876 58.4377 88.8626 58.4377 92.2432 58.4377 81.838 37.2495Z" fill="#FFFFFF" transform="matrix(1 0 0 1.01832 1006 41)"/><path d="M33.3795 57.5878C27.4181 57.5878 21.4538 55.3367 16.8874 50.8267 9.63341 43.6613 7.84031 32.7151 12.4235 23.5872 12.9212 22.5951 14.128 22.1907 15.1243 22.692 16.117 23.1905 16.5179 24.4 16.0194 25.3928 12.2206 32.9577 13.7062 42.0285 19.7151 47.9649 27.3442 55.5005 39.6826 55.4231 47.2182 47.7955 50.8623 44.1054 52.8513 39.2099 52.8199 34.0091 52.7879 28.8082 50.7382 23.9364 47.0495 20.2924 41.04 14.356 31.9524 12.9819 24.4349 16.8735 23.4477 17.3824 22.2347 16.999 21.7236 16.0118 21.2126 15.0253 21.5988 13.8115 22.5853 13.3005 31.6547 8.60579 42.6225 10.2636 49.8765 17.4305 59.0833 26.525 59.1753 41.415 50.0801 50.6232 45.4962 55.2635 39.4386 57.5892 33.3802 57.5892Z" fill="#FFFFFF" transform="matrix(1 0 0 1.01832 1006 41)"/><path d="M33.1899 49.887C27.1211 49.8877 21.5689 46.3698 19.0207 40.7478 17.3057 36.9636 17.1698 32.7332 18.6366 28.8361 20.1034 24.9383 22.9953 21.8484 26.7781 20.1334 30.5602 18.4198 34.7913 18.2824 38.6891 19.7493 42.5877 21.2161 45.6775 24.1072 47.3925 27.89 50.1847 34.0523 48.6969 41.261 43.6885 45.8281 43.3253 46.1606 42.7585 46.1355 42.4252 45.7695 42.0927 45.4049 42.1185 44.8388 42.4838 44.5063 46.9177 40.4627 48.2347 34.0823 45.7632 28.6283 44.2469 25.2799 41.5105 22.7206 38.0596 21.4225 34.6107 20.1243 30.8648 20.2449 27.5164 21.762 24.1672 23.2783 21.6079 26.0147 20.3098 29.4656 19.0117 32.9159 19.1323 36.6604 20.6493 40.0089 23.1201 45.4635 28.7754 48.6781 34.7501 48.0109 35.2479 47.9621 35.6829 48.3093 35.7387 48.8001 35.7938 49.2909 35.4403 49.7336 34.9495 49.7887 34.3604 49.8542 33.772 49.8863 33.1892 49.8863Z" fill="#FFFFFF" transform="matrix(1 0 0 1.01832 1006 41)"/><path d="M33.3851 42.5932C28.719 42.5932 24.9236 38.7979 24.9236 34.1318 24.9236 29.4656 28.719 25.6703 33.3851 25.6703 38.0512 25.6703 41.8473 29.4656 41.8473 34.1318 41.8473 38.7979 38.0512 42.5932 33.3851 42.5932ZM33.3851 30.1405C31.1848 30.1405 29.3938 31.9315 29.3938 34.1318 29.3938 36.332 31.1848 38.123 33.3851 38.123 35.5853 38.123 37.3771 36.332 37.3771 34.1318 37.3771 31.9315 35.586 30.1405 33.3851 30.1405Z" fill="#FFFFFF" transform="matrix(1 0 0 1.01832 1006 41)"/></g></svg>